<?xml version="1.0" standalone="yes"?>
<svg xmlns="http://www.w3.org/2000/svg" width="699" height="698">
<path style="fill:#ffffff; stroke:none;" d="M162 0.424377C142.267 3.04712 123.118 7.22882 105 15.7809C89.8865 22.9148 75.7942 31.6432 63 42.439C29.0671 71.072 6.75796 113.023 1.28627 157C-2.62072 188.401 0 221.371 0 253L0 414L0 486C0 500.491 -1.20302 515.575 0.169753 530C3.30189 562.913 13.0504 594.839 32.4275 622C61.2039 662.336 105.773 690.086 155 696.718C184.018 700.627 214.733 698 244 698L397 698L489 698C507.56 698 526.606 699.295 545 696.573C616.633 685.969 676.036 632.356 693.625 562C702.349 527.103 699 489.68 699 454L699 277L699 204C699 185.942 699.563 167.87 696.565 150C692.033 122.988 681.496 97.2815 665.573 75C637.072 35.1185 592.675 7.83942 544 1.28241C515.302 -2.58344 484.943 0 456 0L306 0L211 0C194.98 0 177.882 -1.68658 162 0.424377z"/>
<path style="fill:#fcece3; stroke:none;" d="M259 50.4244C241.591 52.7103 223.539 51.4937 206 53.1697C178.044 55.8411 148.48 60.8896 124 75.4529C110.833 83.286 99.3564 93.5955 89.1736 105C68.4477 128.213 59.354 159.79 55.2824 190C54.2519 197.646 54.7792 205.425 53.6998 213C48.8361 247.134 51 282.496 51 317C51 362.855 49.0336 409.194 51.0394 455C51.3317 461.677 52.6683 468.323 52.9606 475C54.8156 517.362 60.8675 564.5 91.0895 597C100.931 607.584 111.541 617.135 124 624.547C152.3 641.383 185.135 644.135 217 647.17C264.382 651.682 312.362 650 360 650C413.047 650 466.44 651.203 519 643.572C535.413 641.189 551.785 636.137 567 629.572C576.823 625.333 585.831 619.08 594 612.246C653.597 562.387 650 476.798 650 406L650 356L650 286C650 250.023 649.485 214.491 643.321 179C639.787 158.65 634.535 138.662 623.305 121C616.968 111.034 609.44 102.247 601 94.0146C557.977 52.0458 493.084 52.3591 437 50.9854C410.371 50.3331 383.701 50 357 50L293 50C281.832 50 270.08 48.9695 259 50.4244z"/>
<path style="fill:#bda6a2; stroke:none;" d="M207 112C208.248 112.685 208.548 112.749 210 113C208.752 112.315 208.452 112.251 207 112z"/>
<path style="fill:#a28985; stroke:none;" d="M210 112C211.248 112.685 211.548 112.749 213 113C211.752 112.315 211.452 112.251 210 112z"/>
<path style="fill:#7e6160; stroke:none;" d="M213 112C215.052 112.874 216.747 112.953 219 113C216.948 112.126 215.253 112.047 213 112z"/>
<path style="fill:#6c4e4d; stroke:none;" d="M142 342C149.624 337.55 156.856 334.141 162.482 327C174.575 311.652 175 291.635 175 273L175 213C175 201.078 174.058 188.764 176.311 177C179.492 160.39 191.059 151.234 207 148.004C214.86 146.411 227.244 149.808 231.347 140.985C235.223 132.652 234.869 113.354 223 112.228C219.697 111.915 216.313 112.904 213 112.985C193.033 113.474 171.377 117.306 156.004 131.174C137.935 147.474 136 172.27 136 195C136 224.326 136.345 253.676 135.996 283C135.86 294.448 134.48 309.758 124.96 317.471C114.244 326.152 94.4836 323.216 94.0548 341C93.663 357.247 107.773 356.464 119 361.916C127.275 365.934 132.505 374.154 134.076 383C136.664 397.573 136 412.255 136 427L136 489C136 498.212 135.202 507.846 136.285 517C137.543 527.62 139.421 538.442 144.489 548C154.853 567.544 176.546 578.113 198 580C206.134 580.716 215.911 583.25 223.999 581.772C235.181 579.728 236.22 557.29 229.581 550.279C224.911 545.346 217.015 547.492 211 546.711C196.334 544.805 183.526 538.643 178.24 524C173.092 509.738 175 492.89 175 478C175 451.001 175.129 423.999 174.999 397C174.893 374.905 165.252 348.711 142 342z"/>
<path style="fill:#aa928e; stroke:none;" d="M225.667 112.333C225.222 112.778 226.278 112.722 226.333 112.667C226.778 112.222 225.722 112.278 225.667 112.333z"/>
<path style="fill:#907573; stroke:none;" d="M470.667 112.333C470.222 112.778 471.278 112.722 471.333 112.667C471.778 112.222 470.722 112.278 470.667 112.333z"/>
<path style="fill:#6c4e4d; stroke:none;" d="M555 341C549.158 344.413 543.029 347.319 538.174 352.174C521.081 369.267 522 394.729 522 417L522 478C522 490.587 522.95 503.551 520.854 516C518.253 531.451 507.168 542.444 492 545.55C484.154 547.157 469.579 544.266 465.703 553.019C462.582 560.067 462.129 575.445 469.109 580.397C472.691 582.938 478.846 582.226 483 581.83C504.823 579.754 527.979 576.589 543.96 559.996C560.019 543.322 561 519.795 561 498L561 425C561 410.936 559.556 395.732 563.156 382C565.538 372.913 570.404 365.69 579 361.378C588.568 356.579 600.452 358.09 602.56 345C602.881 343.009 603.018 341.012 602.823 339C601.15 321.794 577.802 325.801 568.557 313.96C563.556 307.554 562.542 298.815 561.914 291C561.029 279.979 561 269.075 561 258L561 207C561 174.903 561.196 138.979 528 122.37C519.817 118.276 510.979 116.032 502 114.589C493.328 113.196 480.566 110.082 472.004 112.573C461.503 115.626 461.049 138.143 468.228 144.682C472.669 148.728 480.5 146.58 486 147.439C500.803 149.751 513.551 156.111 518.91 171C523.332 183.286 522 197.183 522 210L522 264C522 273.891 521.176 284.196 522.579 294C525.446 314.021 533.405 335.046 555 341z"/>
<path style="fill:#a28985; stroke:none;" d="M482 112C483.769 112.779 485.036 112.912 487 113C485.231 112.221 483.964 112.088 482 112z"/>
<path style="fill:#bda6a2; stroke:none;" d="M487 112C488.248 112.685 488.548 112.749 490 113C488.752 112.315 488.451 112.251 487 112z"/>
<path style="fill:#e1cec7; stroke:none;" d="M490.667 112.333C490.222 112.778 491.278 112.722 491.333 112.667C491.778 112.222 490.722 112.278 490.667 112.333z"/>
<path style="fill:#bda6a2; stroke:none;" d="M198.667 113.333C198.222 113.778 199.278 113.722 199.333 113.667C199.778 113.222 198.722 113.278 198.667 113.333z"/>
<path style="fill:#997f7c; stroke:none;" d="M200.667 113.333C200.222 113.778 201.278 113.722 201.333 113.667C201.778 113.222 200.722 113.278 200.667 113.333z"/>
<path style="fill:#b49d98; stroke:none;" d="M228 113L229 114L228 113z"/>
<path style="fill:#bda6a1; stroke:none;" d="M468 113L469 114L468 113z"/>
<path style="fill:#907573; stroke:none;" d="M494.667 113.333C494.222 113.778 495.278 113.722 495.333 113.667C495.778 113.222 494.722 113.278 494.667 113.333z"/>
<path style="fill:#b39c98; stroke:none;" d="M496.667 113.333C496.222 113.778 497.278 113.722 497.333 113.667C497.778 113.222 496.722 113.278 496.667 113.333z"/>
<path style="fill:#e1cec7; stroke:none;" d="M498.667 113.333C498.222 113.778 499.278 113.722 499.333 113.667C499.778 113.222 498.722 113.278 498.667 113.333z"/>
<path style="fill:#bda6a2; stroke:none;" d="M192.667 114.333C192.222 114.778 193.278 114.722 193.333 114.667C193.778 114.222 192.722 114.278 192.667 114.333z"/>
<path style="fill:#b49d98; stroke:none;" d="M229 114L230 115L229 114z"/>
<path style="fill:#b39c97; stroke:none;" d="M467 114L468 115L467 114z"/>
<path style="fill:#997f7c; stroke:none;" d="M501 114C502.248 114.685 502.548 114.749 504 115C502.752 114.315 502.452 114.251 501 114M188.667 115.333C188.222 115.778 189.278 115.722 189.333 115.667C189.778 115.222 188.722 115.278 188.667 115.333z"/>
<path style="fill:#bca6a1; stroke:none;" d="M230 115L231 116L230 115z"/>
<path style="fill:#c6b0ab; stroke:none;" d="M466 115L467 116L466 115z"/>
<path style="fill:#bda6a2; stroke:none;" d="M507 115C508.248 115.685 508.548 115.749 510 116C508.752 115.315 508.452 115.251 507 115M184 116L185 117L184 116z"/>
<path style="fill:#e1cec7; stroke:none;" d="M512.667 116.333C512.222 116.778 513.278 116.722 513.333 116.667C513.778 116.222 512.722 116.278 512.667 116.333z"/>
<path style="fill:#aa928e; stroke:none;" d="M181 117L182 118L181 117z"/>
<path style="fill:#b29b97; stroke:none;" d="M231 117L232 118L231 117z"/>
<path style="fill:#c5afaa; stroke:none;" d="M465 117L466 118L465 117z"/>
<path style="fill:#a18985; stroke:none;" d="M515 117L516 118L515 117z"/>
<path style="fill:#aa928e; stroke:none;" d="M178 118L179 119L178 118z"/>
<path style="fill:#a18985; stroke:none;" d="M518 118L519 119L518 118z"/>
<path style="fill:#bda6a2; stroke:none;" d="M175 119L176 120L175 119z"/>
<path style="fill:#aa928e; stroke:none;" d="M173 120L174 121L173 120z"/>
<path style="fill:#8d7371; stroke:none;" d="M232.333 120.667C232.278 120.722 232.222 121.778 232.667 121.333C232.722 121.278 232.778 120.222 232.333 120.667z"/>
<path style="fill:#967c7a; stroke:none;" d="M464 120L464 123C464.696 121.446 464.696 121.554 464 120z"/>
<path style="fill:#a18985; stroke:none;" d="M523 120L524 121L523 120z"/>
<path style="fill:#f5e5dd; stroke:none;" d="M233 121C234.294 129.764 239.672 142.347 234.347 150.815C227.858 161.134 212.038 157.801 202 159.301C194.185 160.469 186.493 168.199 183.37 175.286C177.502 188.605 179 202.79 179 217L179 268C179 278.298 179.61 288.78 178.282 299C176.707 311.115 174.023 319.522 167.756 330C163.314 337.427 160.254 342.636 152 346C156.466 349.854 160.61 345.625 164.079 342.076C171.852 334.126 176.498 322.701 178.715 312C181.324 299.404 180 285.807 180 273C180 253.693 180.585 234.294 180.975 214.961C181.252 201.228 179.693 185.465 187.105 173.093C192.468 164.143 205.398 161.7 215.004 161.086C220.934 160.708 227.743 161.04 232.532 156.891C241.126 149.447 240.115 129.071 233 121z"/>
<path style="fill:#c6b0ab; stroke:none;" d="M528 122L529 123L528 122z"/>
<path style="fill:#aa928e; stroke:none;" d="M165 124L166 125L165 124z"/>
<path style="fill:#b7a39e; stroke:none;" d="M233 124L233 135C234.431 131.59 234.431 127.41 233 124z"/>
<path style="fill:#f0e0d8; stroke:none;" d="M462 124C460.006 132.373 457.543 147.533 464.499 154.362C470.119 159.879 478.982 158.297 486 159.3C500.235 161.334 509.188 167.047 514.911 180.421C519.992 192.296 518 206.341 518 219L518 272C518 286.361 516.805 302.013 520.725 316C524.303 328.763 532.99 339.711 543 348C544.457 346.896 544.897 346.457 546 345C525.335 334.444 520 309.23 520 288L520 216C520 201.823 521.314 186.468 515.995 173C511.823 162.438 498.799 156.566 488 156.04C482.491 155.772 474.867 157.543 470.015 154.397C462.833 149.74 461.698 141.821 462.039 134C462.191 130.522 463.285 127.292 462 124z"/>
<path style="fill:#b6a29d; stroke:none;" d="M463 124L463 134C464.346 130.793 464.346 127.207 463 124z"/>
<path style="fill:#a18985; stroke:none;" d="M531 124L532 125L531 124z"/>
<path style="fill:#bda6a1; stroke:none;" d="M163 125L164 126L163 125z"/>
<path style="fill:#c5b0aa; stroke:none;" d="M533 125L534 126L533 125z"/>
<path style="fill:#cfbab4; stroke:none;" d="M160 127L161 128L160 127z"/>
<path style="fill:#eedfd7; stroke:none;" d="M234 127C234.096 131.658 235.378 136.348 234.814 141C232.995 156.002 220.237 157.034 208 158C214.921 160.903 229.95 158.241 234.347 151.671C237.884 146.386 237.161 132.277 234 127z"/>
<path style="fill:#c5b0aa; stroke:none;" d="M536 127L537 128L536 127z"/>
<path style="fill:#aa928e; stroke:none;" d="M159 128L160 129L159 128z"/>
<path style="fill:#aa928f; stroke:none;" d="M537 128L538 129L537 128z"/>
<path style="fill:#dccec7; stroke:none;" d="M462 129C462 137.926 460.378 151.43 471.004 155.397C475.882 157.218 482.844 156 488 156C482.797 153.756 476.116 155.008 471.213 151.86C463.964 147.206 465.3 135.866 462 129z"/>
<path style="fill:#cebab4; stroke:none;" d="M541 131L542 132L541 131z"/>
<path style="fill:#c6b0aa; stroke:none;" d="M154 132L155 133L154 132z"/>
<path style="fill:#c5b1aa; stroke:none;" d="M542 132L543 133L542 132z"/>
<path style="fill:#c5b0a9; stroke:none;" d="M153 133L154 134L153 133z"/>
<path style="fill:#e1d2cb; stroke:none;" d="M234 133C232.356 139.905 233.331 147.618 226.895 152.436C221.809 156.244 214.861 154.559 209 155.104C197.075 156.213 184.679 160.93 180 173C185.945 168.641 191.937 162.78 199 160.26C212.638 155.394 233.276 161.122 234.907 141C235.134 138.198 235.076 135.564 234 133z"/>
<path style="fill:#bda6a1; stroke:none;" d="M543 133L544 134L543 133z"/>
<path style="fill:#c6b0aa; stroke:none;" d="M152 134L153 135L152 134z"/>
<path style="fill:#c5b0aa; stroke:none;" d="M544 134L545 135L544 134z"/>
<path style="fill:#9c8481; stroke:none;" d="M232.333 137.667C232.278 137.722 232.222 138.778 232.667 138.333C232.722 138.278 232.778 137.222 232.333 137.667z"/>
<path style="fill:#a9938f; stroke:none;" d="M464 137L464 140C464.696 138.446 464.696 138.554 464 137z"/>
<path style="fill:#a08784; stroke:none;" d="M149 138L150 139L149 138z"/>
<path style="fill:#bba4a0; stroke:none;" d="M148 139L149 140L148 139z"/>
<path style="fill:#cfc2bb; stroke:none;" d="M232 139C230.335 142.888 228.553 148.389 224.856 150.772C219.056 154.51 211.453 152.444 205.004 153.174C190.602 154.805 177.326 164.77 177 180C179.59 177.026 179.793 173.29 181.89 170.004C184.617 165.729 189.677 161.359 194 158.738C203.172 153.179 215.465 157.585 224.985 153.968C230.518 151.865 234.243 144.513 232 139z"/>
<path style="fill:#bca5a0; stroke:none;" d="M548 139L549 140L548 139z"/>
<path style="fill:#9f8985; stroke:none;" d="M465 141L466 142L465 141z"/>
<path style="fill:#bba4a0; stroke:none;" d="M146 142L147 143L146 142z"/>
<path style="fill:#b29b96; stroke:none;" d="M550 142L551 143L550 142z"/>
<path style="fill:#c8bbb5; stroke:none;" d="M466 143C468.698 158.116 486.52 154.031 498 156.482C508.428 158.709 515.466 167.607 519 177C520.396 172.28 517.486 167.427 514.367 163.954C507.429 156.227 498.251 151.684 488 150.21C483.784 149.604 479.225 150.746 475.09 149.686C471.492 148.763 468.774 145.3 466 143z"/>
<path style="fill:#a08684; stroke:none;" d="M145 144L146 145L145 144z"/>
<path style="fill:#9b8681; stroke:none;" d="M229 144L230 145L229 144z"/>
<path style="fill:#9a8581; stroke:none;" d="M467 144L468 145L467 144z"/>
<path style="fill:#977d7a; stroke:none;" d="M551 144L552 145L551 144z"/>
<path style="fill:#9e8a86; stroke:none;" d="M228 145L229 146L228 145z"/>
<path style="fill:#9e8a85; stroke:none;" d="M468 145L469 146L468 145z"/>
<path style="fill:#9f8683; stroke:none;" d="M144 146L145 147L144 146z"/>
<path style="fill:#96817d; stroke:none;" d="M226 146L227 147L226 146z"/>
<path style="fill:#c3b6b0; stroke:none;" d="M227 146C211.15 150.685 192.718 145.516 181.966 162C180.142 164.796 178.917 167.817 178 171C181.432 167.783 183.287 163.271 187.174 160.456C197.588 152.916 208.245 154.508 220 152.79C223.867 152.225 228.453 150.453 227 146z"/>
<path style="fill:#947f7b; stroke:none;" d="M209 147C210.506 147.683 211.315 147.826 213 148C211.494 147.317 210.685 147.174 209 147z"/>
<path style="fill:#bfb2ac; stroke:none;" d="M471 147C474.836 152.319 483.234 149.161 489 150.609C493.25 151.676 499.075 152.679 502.83 154.923C508.135 158.093 512.236 163.174 517 167C511.055 148.383 487.367 147.135 471 147z"/>
<path style="fill:#a89892; stroke:none;" d="M478 147C480.052 147.874 481.747 147.953 484 148C481.948 147.126 480.253 147.047 478 147z"/>
<path style="fill:#8f7875; stroke:none;" d="M484 147C485.248 147.685 485.548 147.749 487 148C485.752 147.315 485.452 147.251 484 147z"/>
<path style="fill:#9e8683; stroke:none;" d="M143 148L144 149L143 148z"/>
<path style="fill:#988581; stroke:none;" d="M204.667 148.333C204.222 148.778 205.278 148.722 205.333 148.667C205.778 148.222 204.722 148.278 204.667 148.333z"/>
<path style="fill:#998581; stroke:none;" d="M490.667 148.333C490.222 148.778 491.278 148.722 491.333 148.667C491.778 148.222 490.722 148.278 490.667 148.333z"/>
<path style="fill:#a89892; stroke:none;" d="M200.667 149.333C200.222 149.778 201.278 149.722 201.333 149.667C201.778 149.222 200.722 149.278 200.667 149.333z"/>
<path style="fill:#9f8683; stroke:none;" d="M142 150L143 151L142 150z"/>
<path style="fill:#a78f8c; stroke:none;" d="M554 150L555 151L554 150z"/>
<path style="fill:#a99993; stroke:none;" d="M194.667 151.333C194.222 151.778 195.278 151.722 195.333 151.667C195.778 151.222 194.722 151.278 194.667 151.333z"/>
<path style="fill:#c0aba6; stroke:none;" d="M141 152L142 153L141 152z"/>
<path style="fill:#8d7370; stroke:none;" d="M555.333 152.667C555.278 152.722 555.222 153.778 555.667 153.333C555.722 153.278 555.778 152.222 555.333 152.667z"/>
<path style="fill:#947f7b; stroke:none;" d="M507 154L508 155L507 154z"/>
<path style="fill:#af9893; stroke:none;" d="M556.333 154.667C556.278 154.722 556.222 155.778 556.667 155.333C556.722 155.278 556.778 154.222 556.333 154.667z"/>
<path style="fill:#b7a19c; stroke:none;" d="M140 155L141 156L140 155z"/>
<path style="fill:#95807c; stroke:none;" d="M186 156L187 157L186 156z"/>
<path style="fill:#d7c9c2; stroke:none;" d="M492 156C496.304 158.705 502.969 161.289 508 162C503.55 157.056 498.433 156.053 492 156z"/>
<path style="fill:#95807c; stroke:none;" d="M185 157L186 158L185 157z"/>
<path style="fill:#ae9793; stroke:none;" d="M557.333 157.667C557.278 157.722 557.222 158.778 557.667 158.333C557.722 158.278 557.778 157.222 557.333 157.667z"/>
<path style="fill:#b6a09b; stroke:none;" d="M139 158L140 159L139 158z"/>
<path style="fill:#95817d; stroke:none;" d="M184 158L185 159L184 158z"/>
<path style="fill:#f4e4dc; stroke:none;" d="M558 158C559.706 170.672 563.033 183.187 563.911 196C565.628 221.087 564 246.85 564 272C564 281.399 563.937 290.654 564.83 300C565.413 306.103 564.996 310.695 570 315C569.402 310.292 567.709 305.676 567.248 301C566.825 296.715 567.917 292.137 568.146 287.841C568.455 282.027 567.886 275.837 567.899 269.949C567.94 251.653 566.706 233.288 567.304 215C567.893 197.012 569.15 173.396 558 158z"/>
<path style="fill:#a48d89; stroke:none;" d="M558.333 161.667C558.278 161.722 558.222 162.778 558.667 162.333C558.722 162.278 558.778 161.222 558.333 161.667z"/>
<path style="fill:#eadbd3; stroke:none;" d="M137 162C130.782 181.446 132 201.775 132 222C132 251.025 132.243 280.053 131 309C136.818 299.474 135 284.731 135 274L135 197C135 189.575 134.98 182.364 136 175C136.582 170.801 138.453 166.053 137 162z"/>
<path style="fill:#8b716f; stroke:none;" d="M138.333 162.667C138.278 162.722 138.222 163.778 138.667 163.333C138.722 163.278 138.778 162.222 138.333 162.667z"/>
<path style="fill:#ded0c9; stroke:none;" d="M508 162C510.609 165.948 514.239 169.554 515.995 174C521.99 189.182 520 207.021 520 223L520 286C520 300.437 521.12 315.633 528.63 328.282C531.495 333.109 533.851 337.258 539 340C535.318 331.58 529.294 323.948 526.633 315C521.152 296.563 521 278.058 521 259L521 207C521 195.522 522.5 183.701 517.907 173C515.837 168.18 513.192 163.668 508 162z"/>
<path style="fill:#ecddd5; stroke:none;" d="M155 345C161.731 342.659 164.313 336.757 167.756 331C174.829 319.174 178.35 307.935 178.961 294C179.993 270.43 179 246.594 179 223C179 207.208 176.635 189.923 183.765 175.286C185.945 170.809 189.952 167.796 193 164C171.865 171.96 177 198.773 177 217L177 274C177 283.316 178.366 293.877 176.32 303C172.627 319.468 164.468 331.493 155 345z"/>
<path style="fill:#b49e9a; stroke:none;" d="M559.333 165.667C559.278 165.722 559.222 166.778 559.667 166.333C559.722 166.278 559.778 165.222 559.333 165.667z"/>
<path style="fill:#a38b87; stroke:none;" d="M137 166L137 169C137.696 167.446 137.696 167.554 137 166z"/>
<path style="fill:#836766; stroke:none;" d="M559.333 167.667C559.278 167.722 559.222 168.778 559.667 168.333C559.722 168.278 559.778 167.222 559.333 167.667z"/>
<path style="fill:#b2a19b; stroke:none;" d="M518.333 169.667C518.278 169.722 518.222 170.778 518.667 170.333C518.722 170.278 518.778 169.222 518.333 169.667z"/>
<path style="fill:#baa6a1; stroke:none;" d="M136 171L136 174C136.696 172.446 136.696 172.554 136 171z"/>
<path style="fill:#b39d98; stroke:none;" d="M560.333 171.667C560.278 171.722 560.222 172.778 560.667 172.333C560.722 172.278 560.778 171.222 560.333 171.667z"/>
<path style="fill:#b4a49d; stroke:none;" d="M177.333 172.667C177.278 172.722 177.222 173.778 177.667 173.333C177.722 173.278 177.778 172.222 177.333 172.667z"/>
<path style="fill:#a89590; stroke:none;" d="M519.333 172.667C519.278 172.722 519.222 173.778 519.667 173.333C519.722 173.278 519.778 172.222 519.333 172.667z"/>
<path style="fill:#927976; stroke:none;" d="M560.333 173.667C560.278 173.722 560.222 174.778 560.667 174.333C560.722 174.278 560.778 173.222 560.333 173.667z"/>
<path style="fill:#8a6f6e; stroke:none;" d="M136.333 174.667C136.278 174.722 136.222 175.778 136.667 175.333C136.722 175.278 136.778 174.222 136.333 174.667z"/>
<path style="fill:#8a726f; stroke:none;" d="M176 175L176 178C176.696 176.446 176.696 176.554 176 175z"/>
<path style="fill:#a48f8b; stroke:none;" d="M520 176L520 179C520.696 177.446 520.696 177.554 520 176z"/>
<path style="fill:#c6b4ae; stroke:none;" d="M135 178L135 183C135.83 180.969 135.83 180.03 135 178z"/>
<path style="fill:#c0afaa; stroke:none;" d="M176.333 178.667C176.278 178.722 176.222 179.778 176.667 179.333C176.722 179.278 176.778 178.222 176.333 178.667z"/>
<path style="fill:#cfbeb7; stroke:none;" d="M561 178L561 181C561.696 179.446 561.696 179.554 561 178z"/>
<path style="fill:#e5d6cf; stroke:none;" d="M176 180C176 225.533 180.172 273.324 171 318C179.716 307.906 177 289.351 177 277C177 244.652 176.615 212.266 178 180L176 180z"/>
<path style="fill:#a8918d; stroke:none;" d="M561 181L561 187C561.951 184.715 561.951 183.285 561 181z"/>
<path style="fill:#947c79; stroke:none;" d="M175 182L175 186C175.71 184.241 175.71 183.759 175 182z"/>
<path style="fill:#a6908c; stroke:none;" d="M135 183L135 190C136.059 187.466 136.059 185.534 135 183z"/>
<path style="fill:#b29f9a; stroke:none;" d="M521 183L521 288C524.105 280.601 522 269.007 522 261L522 207C522 199.784 523.802 189.678 521 183z"/>
<path style="fill:#e9dad3; stroke:none;" d="M562 184C562 224.68 560.803 265.497 564 306C565.78 301.756 564.394 297.443 564.089 293C563.682 287.043 564 280.97 564 275L564 214C564 204.669 565.701 192.739 562 184z"/>
<path style="fill:#a38d89; stroke:none;" d="M175 186L175 190C175.71 188.24 175.71 187.76 175 186z"/>
<path style="fill:#967e7b; stroke:none;" d="M561 187L561 288C564.004 280.841 562 269.744 562 262L562 210C562 203.049 563.701 193.436 561 187M135 190L135 290C138.004 282.841 136 271.744 136 264L136 213C136 206.049 137.701 196.436 135 190z"/>
<path style="fill:#b3a09b; stroke:none;" d="M175 190L175 288C177.903 281.081 176 270.48 176 263L176 213C176 206.049 177.701 196.436 175 190z"/>
<path style="fill:#a99f9b; stroke:none;" d="M254 238L255 239L254 238z"/>
<path style="fill:#3e3e3e; stroke:none;" d="M255.001 238.649C243.358 242.178 240.917 259.754 253.004 264.437C258.666 266.63 265.055 266 271 266L300 266L403 266L435 266C440.701 266 447.026 266.708 451.981 263.297C463.809 255.157 456.633 239.552 444 238.174C429.98 236.644 415.104 238 401 238L317 238L276 238C269.441 238 261.326 236.732 255.001 238.649z"/>
<path style="fill:#797471; stroke:none;" d="M446.667 238.333C446.222 238.778 447.278 238.722 447.333 238.667C447.778 238.222 446.722 238.278 446.667 238.333z"/>
<path style="fill:#b5aaa6; stroke:none;" d="M448 238L449 239L448 238z"/>
<path style="fill:#6d6967; stroke:none;" d="M252 239L253 240L252 239z"/>
<path style="fill:#857f7c; stroke:none;" d="M450 239L451 240L450 239z"/>
<path style="fill:#928a87; stroke:none;" d="M250 240L251 241L250 240z"/>
<path style="fill:#9c9491; stroke:none;" d="M452 240L453 241L452 240z"/>
<path style="fill:#6d6967; stroke:none;" d="M249 241L250 242L249 241z"/>
<path style="fill:#918a86; stroke:none;" d="M453 241L454 242L453 241z"/>
<path style="fill:#857f7c; stroke:none;" d="M454 242L455 243L454 242z"/>
<path style="fill:#857f7b; stroke:none;" d="M247 243L248 244L247 243z"/>
<path style="fill:#918986; stroke:none;" d="M455 243L456 244L455 243z"/>
<path style="fill:#b4a9a4; stroke:none;" d="M246 244L247 245L246 244z"/>
<path style="fill:#cbbfb9; stroke:none;" d="M456 244L457 245L456 244z"/>
<path style="fill:#6c6867; stroke:none;" d="M456 245L457 246L456 245z"/>
<path style="fill:#b3a9a4; stroke:none;" d="M245 246L246 247L245 246z"/>
<path style="fill:#cabdb8; stroke:none;" d="M457 246L458 247L457 246z"/>
<path style="fill:#f6e6de; stroke:none;" d="M242 249C236.754 259.897 239.828 276.677 254.09 278.775C269.479 281.04 286.441 278.844 302 279.004C337.299 279.367 372.662 279 408 279C416.998 279 426.003 278.897 435 279.004C438.662 279.047 442.353 279.938 446 279.522C452.159 278.819 456.999 276.464 458 270L462 270C463.539 263.249 465.898 253.572 459 249C459.488 252.321 460.799 255.63 460.816 259C460.858 267.175 454.705 274.403 447 276.39C439.892 278.224 431.304 277 424 277L380 277L299 277C286.194 277 271.611 278.951 259 276.737C251.568 275.432 241.722 270.492 241.148 262C240.838 257.414 242.981 253.321 244 249L242 249z"/>
<path style="fill:#948c89; stroke:none;" d="M244 249L244 255C244.951 252.715 244.951 251.285 244 249z"/>
<path style="fill:#ada39e; stroke:none;" d="M458 249L458 255C458.951 252.715 458.951 251.285 458 249z"/>
<path style="fill:#e7d8d0; stroke:none;" d="M242 252C241.645 256.504 240.06 261.601 241.742 266C243.757 271.27 248.823 273.98 254 275.25C264.801 277.899 277.911 276 289 276L445 276C440.531 274.125 434.809 275 430 275L400 275L294 275C279.762 275 251.765 280.681 245.009 264C243.506 260.288 244 255.921 244 252L242 252z"/>
<path style="fill:#edded6; stroke:none;" d="M459 252C458.074 256.988 459.037 263.604 456.106 267.896C453.375 271.896 447.648 274.674 443 275.62C431.18 278.027 417.058 276 405 276L256 276C260.969 278.085 267.65 277 273 277L307 277L426 277C433.59 277 442.771 278.397 449.996 275.752C458.91 272.49 464.014 260.37 459 252z"/>
<path style="fill:#d8cac3; stroke:none;" d="M244 255C244.002 258.325 243.733 261.853 245.009 265C248.698 274.095 256.666 274 265 274L289 274L399 274L432 274C438.239 274 444.988 274.777 451 273C446.744 271.978 441.457 273 437 273L406 273L306 273L269 273C263.698 273 257.049 274.025 252.468 270.772C246.557 266.575 247.287 260.486 244 255z"/>
<path style="fill:#8c8581; stroke:none;" d="M245.333 256.667C245.278 256.722 245.222 257.778 245.667 257.333C245.722 257.278 245.778 256.222 245.333 256.667z"/>
<path style="fill:#706b69; stroke:none;" d="M457 256L458 257L457 256z"/>
<path style="fill:#a09894; stroke:none;" d="M457 257L458 258L457 257z"/>
<path style="fill:#d1c3bd; stroke:none;" d="M457 258C454.138 262.096 451.592 267.551 446.91 269.86C442.63 271.971 436.636 271 432 271L400 271L252 271C256.725 273.831 262.659 273 268 273L298 273L415 273L437 273C440.834 273 445.329 273.601 448.996 272.272C454.526 270.268 459.336 263.786 457 258z"/>
<path style="fill:#928a87; stroke:none;" d="M246 259L247 260L246 259z"/>
<path style="fill:#beb1ab; stroke:none;" d="M246 260C246.288 264.145 247.922 268.515 252.104 270.258C255.602 271.717 260.293 271 264 271L289 271L412 271L436 271C443.234 271 449.425 271.299 453 264C436.352 268.405 417.182 266 400 266L303 266L271 266C265.933 266 259.89 266.871 255 265.347C251.664 264.307 248.885 261.882 246 260z"/>
<path style="fill:#867e7b; stroke:none;" d="M455 260L456 261L455 260z"/>
<path style="fill:#716d69; stroke:none;" d="M454 261L455 262L454 261z"/>
<path style="fill:#706b68; stroke:none;" d="M453 262L454 263L453 262z"/>
<path style="fill:#807976; stroke:none;" d="M250 263L251 264L250 263z"/>
<path style="fill:#89827e; stroke:none;" d="M452 263L453 264L452 263z"/>
<path style="fill:#6e6966; stroke:none;" d="M252 264L253 265L252 264z"/>
<path style="fill:#6f6a67; stroke:none;" d="M450 264L451 265L450 264z"/>
<path style="fill:#e0d1ca; stroke:none;" d="M457 264L451 272C454.729 270.671 457.986 268.274 457 264z"/>
<path style="fill:#666260; stroke:none;" d="M254 265C255.248 265.685 255.548 265.749 257 266C255.752 265.315 255.452 265.251 254 265z"/>
<path style="fill:#867f7b; stroke:none;" d="M447.667 265.333C447.222 265.778 448.278 265.722 448.333 265.667C448.778 265.222 447.722 265.278 447.667 265.333z"/>
<path style="fill:#fdf5f1; stroke:none;" d="M50 266L50 434C51.6611 430.041 51 425.26 51 421L51 396L51 309L51 280C51 275.464 51.7688 270.215 50 266z"/>
<path style="fill:#fef8f4; stroke:none;" d="M650 273L650 405C653.407 396.882 651 383.797 651 375L651 307L651 285C651 281.017 651.552 276.699 650 273z"/>
<path style="fill:#e0d1ca; stroke:none;" d="M257 274C262.216 276.189 269.381 275 275 275L313 275L447 275C441.784 272.811 434.619 274 429 274L390 274L257 274z"/>
<path style="fill:#866d6a; stroke:none;" d="M174.333 292.667C174.278 292.722 174.222 293.778 174.667 293.333C174.722 293.278 174.778 292.222 174.333 292.667z"/>
<path style="fill:#cdbbb4; stroke:none;" d="M562.333 292.667C562.278 292.722 562.222 293.778 562.667 293.333C562.722 293.278 562.778 292.222 562.333 292.667z"/>
<path style="fill:#9b8480; stroke:none;" d="M522.333 293.667C522.278 293.722 522.222 294.778 522.667 294.333C522.722 294.278 522.778 293.222 522.333 293.667z"/>
<path style="fill:#bcaaa5; stroke:none;" d="M134.333 294.667C134.278 294.722 134.222 295.778 134.667 295.333C134.722 295.278 134.778 294.222 134.333 294.667z"/>
<path style="fill:#a28c88; stroke:none;" d="M174.333 294.667C174.278 294.722 174.222 295.778 174.667 295.333C174.722 295.278 174.778 294.222 174.333 294.667z"/>
<path style="fill:#b6a29d; stroke:none;" d="M562.333 294.667C562.278 294.722 562.222 295.778 562.667 295.333C562.722 295.278 562.778 294.222 562.333 294.667z"/>
<path style="fill:#b09c98; stroke:none;" d="M522.333 295.667C522.278 295.722 522.222 296.778 522.667 296.333C522.722 296.278 522.778 295.222 522.333 295.667z"/>
<path style="fill:#98807d; stroke:none;" d="M134 296L134 299C134.696 297.446 134.696 297.554 134 296z"/>
<path style="fill:#bfada7; stroke:none;" d="M174.333 296.667C174.278 296.722 174.222 297.778 174.667 297.333C174.722 297.278 174.778 296.222 174.333 296.667z"/>
<path style="fill:#98807e; stroke:none;" d="M562.333 296.667C562.278 296.722 562.222 297.778 562.667 297.333C562.722 297.278 562.778 296.222 562.333 296.667z"/>
<path style="fill:#a99f9b; stroke:none;" d="M254 298L255 299L254 298z"/>
<path style="fill:#3e3e3e; stroke:none;" d="M255.001 298.664C238.122 303.358 244.889 330.123 262 325.181C278.863 320.312 271.638 294.037 255.001 298.664z"/>
<path style="fill:#797471; stroke:none;" d="M260.667 298.333C260.222 298.778 261.278 298.722 261.333 298.667C261.778 298.222 260.722 298.278 260.667 298.333z"/>
<path style="fill:#b5aaa6; stroke:none;" d="M262 298L263 299L262 298z"/>
<path style="fill:#a99f9b; stroke:none;" d="M310 298L311 299L310 298z"/>
<path style="fill:#3e3e3e; stroke:none;" d="M311.001 298.649C299.358 302.178 296.917 319.754 309.004 324.437C318.912 328.275 332.529 326 343 326L413 326L435 326C439.728 326 444.74 326.372 448.995 323.91C461.29 316.799 455.869 300.223 443 298.301C433.337 296.858 422.763 298 413 298L355 298L326 298C321.209 298 315.636 297.244 311.001 298.649z"/>
<path style="fill:#797471; stroke:none;" d="M444.667 298.333C444.222 298.778 445.278 298.722 445.333 298.667C445.778 298.222 444.722 298.278 444.667 298.333z"/>
<path style="fill:#b5aaa6; stroke:none;" d="M446 298L447 299L446 298z"/>
<path style="fill:#8d7472; stroke:none;" d="M173 299L173 302C173.696 300.446 173.696 300.554 173 299z"/>
<path style="fill:#6d6967; stroke:none;" d="M252 299L253 300L252 299z"/>
<path style="fill:#857f7c; stroke:none;" d="M264 299L265 300L264 299z"/>
<path style="fill:#6d6967; stroke:none;" d="M308 299L309 300L308 299z"/>
<path style="fill:#857f7c; stroke:none;" d="M448 299L449 300L448 299z"/>
<path style="fill:#918986; stroke:none;" d="M250 300L251 301L250 300z"/>
<path style="fill:#9d9591; stroke:none;" d="M266 300L267 301L266 300z"/>
<path style="fill:#928a87; stroke:none;" d="M306 300L307 301L306 300z"/>
<path style="fill:#9d9591; stroke:none;" d="M450 300L451 301L450 300z"/>
<path style="fill:#a7928e; stroke:none;" d="M523 300L523 303C523.696 301.446 523.696 301.554 523 300z"/>
<path style="fill:#6d6a67; stroke:none;" d="M249 301L250 302L249 301z"/>
<path style="fill:#918a86; stroke:none;" d="M267 301L268 302L267 301z"/>
<path style="fill:#6d6a67; stroke:none;" d="M305 301L306 302L305 301z"/>
<path style="fill:#918a86; stroke:none;" d="M451 301L452 302L451 301z"/>
<path style="fill:#a28a86; stroke:none;" d="M563.333 301.667C563.278 301.722 563.222 302.778 563.667 302.333C563.722 302.278 563.778 301.222 563.333 301.667z"/>
<path style="fill:#8b706e; stroke:none;" d="M133.333 302.667C133.278 302.722 133.222 303.778 133.667 303.333C133.722 303.278 133.778 302.222 133.333 302.667z"/>
<path style="fill:#857f7b; stroke:none;" d="M268 302L269 303L268 302M452 302L453 303L452 302M247 303L248 304L247 303z"/>
<path style="fill:#918a86; stroke:none;" d="M269 303L270 304L269 303z"/>
<path style="fill:#857f7b; stroke:none;" d="M303 303L304 304L303 303z"/>
<path style="fill:#918a86; stroke:none;" d="M453 303L454 304L453 303z"/>
<path style="fill:#b4a9a5; stroke:none;" d="M246 304L247 305L246 304z"/>
<path style="fill:#cbbeb9; stroke:none;" d="M270 304L271 305L270 304z"/>
<path style="fill:#b4a9a5; stroke:none;" d="M302 304L303 305L302 304z"/>
<path style="fill:#cbbeb9; stroke:none;" d="M454 304L455 305L454 304z"/>
<path style="fill:#b2a09b; stroke:none;" d="M172.333 305.667C172.278 305.722 172.222 306.778 172.667 306.333C172.722 306.278 172.778 305.222 172.333 305.667z"/>
<path style="fill:#6c6867; stroke:none;" d="M270 305L271 306L270 305z"/>
<path style="fill:#6c6967; stroke:none;" d="M454 305L455 306L454 305z"/>
<path style="fill:#ad9995; stroke:none;" d="M524.333 305.667C524.278 305.722 524.222 306.778 524.667 306.333C524.722 306.278 524.778 305.222 524.333 305.667z"/>
<path style="fill:#b2a8a4; stroke:none;" d="M245 306L246 307L245 306z"/>
<path style="fill:#cabdb8; stroke:none;" d="M271 306L272 307L271 306z"/>
<path style="fill:#b3a9a4; stroke:none;" d="M301 306L302 307L301 306z"/>
<path style="fill:#cabdb7; stroke:none;" d="M455 306L456 307L455 306z"/>
<path style="fill:#a38b88; stroke:none;" d="M564 306L565 307L564 306z"/>
<path style="fill:#d6c8c1; stroke:none;" d="M172 307C169.744 313.923 167.107 322.639 162.856 328.576C158.551 334.587 151.216 338.309 148 345C152.517 345.002 154.762 342.545 158.046 339.65C164.923 333.589 168.886 326.827 171.155 318C172.147 314.143 173.587 310.827 172 307z"/>
<path style="fill:#9b8380; stroke:none;" d="M131 309L132 310L131 309z"/>
<path style="fill:#958d89; stroke:none;" d="M244 309L244 315C244.951 312.715 244.951 311.285 244 309z"/>
<path style="fill:#aca29e; stroke:none;" d="M272 309L272 315C272.951 312.715 272.951 311.285 272 309z"/>
<path style="fill:#958d8a; stroke:none;" d="M300 309L300 315C300.951 312.715 300.951 311.285 300 309z"/>
<path style="fill:#afa5a1; stroke:none;" d="M456 309L456 315C456.951 312.715 456.951 311.285 456 309z"/>
<path style="fill:#9c8481; stroke:none;" d="M130 311L131 312L130 311M566 311L567 312L566 311z"/>
<path style="fill:#edddd5; stroke:none;" d="M242 312C241.292 317.598 240.079 323.743 242.988 328.995C248.831 339.543 265.219 340.509 272.196 330.956C276.101 325.609 275.455 318.111 274 312C270.168 318.397 272.769 325.344 266.556 330.956C258.96 337.817 247.673 334.319 244.144 325C242.509 320.681 243.651 316.423 244 312L242 312z"/>
<path style="fill:#9e8884; stroke:none;" d="M526 312L527 313L526 312z"/>
<path style="fill:#f2e2da; stroke:none;" d="M299 313C297.116 320.913 297.164 333.909 306.019 337.772C310.286 339.633 315.463 339 320 339L347 339.001C368.99 338.903 391.011 338.742 413 339.004C424.217 339.137 436.882 340.985 447.995 338.517C457.035 336.509 462.063 321.411 457 314C454.415 322.744 456.298 330.466 445.961 334.717C437.004 338.4 423.568 336 414 336L345 336L322 336C318.555 336 314.346 336.614 311.17 335.012C306.784 332.799 301.392 326.826 300.299 321.961C299.609 318.887 300.234 315.941 299 313z"/>
<path style="fill:#cdc0b9; stroke:none;" d="M526 313C527.986 324.139 536.335 341.293 547 346C547.884 340.253 541.5 337.324 538.029 333.447C532.753 327.552 531.045 319.089 526 313z"/>
<path style="fill:#a8908c; stroke:none;" d="M128 314L129 315L128 314z"/>
<path style="fill:#9f8683; stroke:none;" d="M568 314L569 315L568 314z"/>
<path style="fill:#b19a96; stroke:none;" d="M127 315L128 316L127 315z"/>
<path style="fill:#e3d4cd; stroke:none;" d="M244 315C242.259 320.902 243.239 328.226 248.468 332.258C255.248 337.486 265.89 334.679 270.101 327.711C271.874 324.777 271.931 321.318 272 318C269.35 321.363 268.957 325.695 265.867 328.941C260.042 335.06 251.511 333.003 247.367 325.981C245.305 322.488 245.516 318.577 244 315z"/>
<path style="fill:#d9cbc4; stroke:none;" d="M300 315C300 317.86 299.634 321.077 300.549 323.83C305.214 337.865 323.6 334 335 334L446 334C437.643 330.493 424.06 333 415 333L344 333L321 333C316.923 332.998 312.657 333.311 309.143 330.853C303.674 327.026 303.143 320.211 300 315z"/>
<path style="fill:#b19a96; stroke:none;" d="M569 315L570 316L569 315z"/>
<path style="fill:#b19b96; stroke:none;" d="M126 316L127 317L126 316z"/>
<path style="fill:#8c8581; stroke:none;" d="M245.333 316.667C245.278 316.722 245.222 317.778 245.667 317.333C245.722 317.278 245.778 316.222 245.333 316.667z"/>
<path style="fill:#6f6b69; stroke:none;" d="M271 316L272 317L271 316z"/>
<path style="fill:#8d8682; stroke:none;" d="M301.333 316.667C301.278 316.722 301.222 317.778 301.667 317.333C301.722 317.278 301.778 316.222 301.333 316.667z"/>
<path style="fill:#706b69; stroke:none;" d="M455 316L456 317L455 316z"/>
<path style="fill:#b19a96; stroke:none;" d="M570 316L571 317L570 316z"/>
<path style="fill:#a9918e; stroke:none;" d="M125 317L126 318L125 317z"/>
<path style="fill:#a09793; stroke:none;" d="M271 317L272 318L271 317z"/>
<path style="fill:#a09894; stroke:none;" d="M455 317L456 318L455 317z"/>
<path style="fill:#a9918e; stroke:none;" d="M571 317L572 318L571 317z"/>
<path style="fill:#cbbeb7; stroke:none;" d="M245 318C245.219 322.227 246.182 326.476 249.39 329.525C257.693 337.419 268.435 330.853 270 321C267.673 323.115 266.34 326.323 263.776 328.142C254.421 334.779 249.343 323.964 245 318z"/>
<path style="fill:#ccbfb8; stroke:none;" d="M455 318C453.073 321.757 451.756 326.755 447.826 328.972C445.006 330.562 441.108 330 438 330L416 330L350 330C335.238 330 320.43 330.962 306 328C311.26 336.569 329.222 333 338 333L431 333C439.768 333 455.439 335.755 455.942 323.015C456.017 321.105 455.716 319.707 455 318z"/>
<path style="fill:#bca6a1; stroke:none;" d="M122 319L123 320L122 319z"/>
<path style="fill:#918986; stroke:none;" d="M246 319L247 320L246 319z"/>
<path style="fill:#918a86; stroke:none;" d="M302 319L303 320L302 319z"/>
<path style="fill:#b39c98; stroke:none;" d="M574 319L575 320L574 319z"/>
<path style="fill:#857e7a; stroke:none;" d="M269 320L270 321L269 320z"/>
<path style="fill:#c0b3ad; stroke:none;" d="M302 320C304.706 333.005 321.041 330 331 330L420 330C430.121 330 449.75 334.452 453 322C441.413 328.063 427.805 326 415 326L341 326C331.863 326 319.761 328.078 311 325.347C307.664 324.307 304.885 321.882 302 320z"/>
<path style="fill:#867f7b; stroke:none;" d="M453 320L454 321L453 320z"/>
<path style="fill:#c6b0ab; stroke:none;" d="M576 320L577 321L576 320M118 321L119 322L118 321z"/>
<path style="fill:#bfb2ac; stroke:none;" d="M247 321C249.4 330.151 263.203 334.421 267 324C258.548 326.236 254.521 325.523 247 321z"/>
<path style="fill:#716d69; stroke:none;" d="M268 321L269 322L268 321M452 321L453 322L452 321z"/>
<path style="fill:#c5b0aa; stroke:none;" d="M578 321L579 322L578 321z"/>
<path style="fill:#aa928e; stroke:none;" d="M116 322L117 323L116 322z"/>
<path style="fill:#9a8380; stroke:none;" d="M165 322L166 323L165 322z"/>
<path style="fill:#706b68; stroke:none;" d="M267 322L268 323L267 322M451 322L452 323L451 322z"/>
<path style="fill:#a18985; stroke:none;" d="M580 322L581 323L580 322z"/>
<path style="fill:#aa928e; stroke:none;" d="M113 323L114 324L113 323z"/>
<path style="fill:#807a77; stroke:none;" d="M250 323L251 324L250 323z"/>
<path style="fill:#89827e; stroke:none;" d="M266 323L267 324L266 323z"/>
<path style="fill:#807a77; stroke:none;" d="M306 323L307 324L306 323z"/>
<path style="fill:#89827e; stroke:none;" d="M450 323L451 324L450 323z"/>
<path style="fill:#a18985; stroke:none;" d="M583 323L584 324L583 323z"/>
<path style="fill:#b49d98; stroke:none;" d="M108.667 324.333C108.222 324.778 109.278 324.722 109.333 324.667C109.778 324.222 108.722 324.278 108.667 324.333z"/>
<path style="fill:#bfb2ac; stroke:none;" d="M164 324C158.413 331.931 150.882 337.301 142 341C148.774 346.304 155.237 337.985 159.815 333.035C162.274 330.377 165.015 327.712 164 324z"/>
<path style="fill:#6e6967; stroke:none;" d="M252 324L253 325L252 324z"/>
<path style="fill:#6f6a68; stroke:none;" d="M264 324L265 325L264 324z"/>
<path style="fill:#6e6966; stroke:none;" d="M308 324L309 325L308 324z"/>
<path style="fill:#6f6967; stroke:none;" d="M448 324L449 325L448 324z"/>
<path style="fill:#b39c98; stroke:none;" d="M586.667 324.333C586.222 324.778 587.278 324.722 587.333 324.667C587.778 324.222 586.722 324.278 586.667 324.333z"/>
<path style="fill:#997f7c; stroke:none;" d="M105.667 325.333C105.222 325.778 106.278 325.722 106.333 325.667C106.778 325.222 105.722 325.278 105.667 325.333z"/>
<path style="fill:#98827f; stroke:none;" d="M163 325L164 326L163 325z"/>
<path style="fill:#656260; stroke:none;" d="M254 325C255.248 325.685 255.548 325.749 257 326C255.752 325.315 255.452 325.251 254 325z"/>
<path style="fill:#867e7b; stroke:none;" d="M261.667 325.333C261.222 325.778 262.278 325.722 262.333 325.667C262.778 325.222 261.722 325.278 261.667 325.333z"/>
<path style="fill:#656260; stroke:none;" d="M310 325C311.248 325.685 311.548 325.749 313 326C311.752 325.315 311.452 325.251 310 325z"/>
<path style="fill:#867e7b; stroke:none;" d="M445.667 325.333C445.222 325.778 446.278 325.722 446.333 325.667C446.778 325.222 445.722 325.278 445.667 325.333z"/>
<path style="fill:#927b79; stroke:none;" d="M533 325L534 326L533 325z"/>
<path style="fill:#bda6a2; stroke:none;" d="M590.667 325.333C590.222 325.778 591.278 325.722 591.333 325.667C591.778 325.222 590.722 325.278 590.667 325.333z"/>
<path style="fill:#b49d98; stroke:none;" d="M102 326L103 327L102 326z"/>
<path style="fill:#aa928e; stroke:none;" d="M594 326L595 327L594 326z"/>
<path style="fill:#b49d98; stroke:none;" d="M100 327L101 328L100 327z"/>
<path style="fill:#c2b5af; stroke:none;" d="M534 327C536.524 334.855 544.435 337.965 548 345L555 342C551.657 339.289 547.486 337.95 544 335.387C540.475 332.796 537.581 329.522 534 327z"/>
<path style="fill:#b49d99; stroke:none;" d="M596 327L597 328L596 327z"/>
<path style="fill:#a18885; stroke:none;" d="M96 331L97 332L96 331z"/>
<path style="fill:#a08784; stroke:none;" d="M95 333L96 334L95 333z"/>
<path style="fill:#e0d1ca; stroke:none;" d="M309 334C313.215 335.769 318.465 335 323 335L350 335L414 335C425.835 335 438.335 336.166 450 334C446.118 332.608 441.167 333.993 437 334L408 334L309 334z"/>
<path style="fill:#f8e7df; stroke:none;" d="M93 335C90.6617 338.594 89.1502 341.642 89.0154 346C88.8804 350.365 88.3483 355.918 90.4676 359.905C98.9146 375.797 121.717 370.242 127.289 389C130.078 398.389 129.258 409.366 129.224 419C129.189 428.575 129.544 438.129 129.398 447.715C129.109 466.772 130.572 485.901 129.965 505C129.445 521.31 130.216 538.459 137.784 553.17C140.446 558.345 142.404 563.202 147 567C146.298 562.17 143.409 558.379 141.375 554C137.538 545.74 132.681 535.183 132.054 526C129.913 494.654 132 462.427 132 431C132 418.121 134.383 402.495 131.076 390.001C128.679 380.949 121.445 374.353 112.999 370.865C106.393 368.136 98.4669 366.781 93.804 360.816C90.266 356.289 90.1687 348.434 91.4144 343C92.0877 340.063 93.7002 337.981 93 335z"/>
<path style="fill:#a78f8c; stroke:none;" d="M94.3333 335.667C94.2777 335.722 94.2223 336.778 94.6667 336.333C94.7221 336.278 94.7778 335.222 94.3333 335.667z"/>
<path style="fill:#e7d8d1; stroke:none;" d="M310 335C314.215 336.769 319.465 336 324 336L351 336L445 336C440.785 334.231 435.536 335 431 335L404 335L310 335z"/>
<path style="fill:#957f7c; stroke:none;" d="M543 335L544 336L543 335z"/>
<path style="fill:#9f8683; stroke:none;" d="M602.333 335.667C602.278 335.722 602.222 336.778 602.667 336.333C602.722 336.278 602.778 335.222 602.333 335.667z"/>
<path style="fill:#e1d2cb; stroke:none;" d="M151 345C155.829 345.643 159.453 340.606 162 337C157.668 338.849 154.633 342.077 151 345z"/>
<path style="fill:#f7e7df; stroke:none;" d="M603 337C604.37 342.518 606.925 347.049 605.722 353C602.73 367.811 587.171 365.9 577.263 372.279C572.379 375.423 568.783 383.549 567.47 389C565.437 397.435 566.336 406.42 565.961 415C565.362 428.677 565 442.264 565 456C565 477.703 566.92 500.403 564.83 522C563.875 531.875 560.316 541.227 559 551L562 550C561.452 541.012 566.563 532.985 566.961 524C568.363 492.294 567.295 460.625 567.975 428.961C568.278 414.888 563.987 395.645 571.843 383C578.527 372.243 591.876 373.895 600.946 366.571C607.653 361.155 611.054 342.234 603 337z"/>
<path style="fill:#eadbd3; stroke:none;" d="M93 338C91.5346 341.045 91.0493 343.608 91.0039 347C90.9421 351.612 90.3849 356.827 93.1481 360.816C97.1767 366.63 104.831 368.059 111 370.46C119.944 373.94 127.946 380.527 130.79 390.001C132.621 396.098 132 402.709 132 409L132 439L132 499C132 508.685 130.69 519.438 132.259 529C133.331 535.528 136.523 541.56 138 548C139.3 544.336 137.439 540.787 137.09 537C136.189 527.24 135 517.83 135 508L135 428C135 414.092 137.125 398.104 131.489 385C127.568 375.883 121.083 371.015 112 367.464C106.845 365.448 101.249 365.054 97.2284 360.811C91.1968 354.445 96.0576 345.287 93 338M603 340C603 345.228 604.156 352.082 602.142 356.996C598.559 365.738 586.734 366.844 579 370C582.767 371.144 586.406 369.393 590 368.075C593.467 366.803 596.949 365.939 599.816 363.467C605.902 358.219 609.295 346.165 603 340z"/>
<path style="fill:#8f7574; stroke:none;" d="M602.333 345.667C602.278 345.722 602.222 346.778 602.667 346.333C602.722 346.278 602.778 345.222 602.333 345.667z"/>
<path style="fill:#b19d99; stroke:none;" d="M94.3333 346.667C94.2777 346.722 94.2223 347.778 94.6667 347.333C94.7222 347.278 94.7778 346.222 94.3333 346.667z"/>
<path style="fill:#aa938f; stroke:none;" d="M151 346L152 347L151 346z"/>
<path style="fill:#a9938f; stroke:none;" d="M545 346L546 347L545 346z"/>
<path style="fill:#e3d4cd; stroke:none;" d="M602 347C601.202 351.278 600.976 355.579 598.08 359.062C593.746 364.275 586.953 364.736 581.089 367.13C577.072 368.769 572.3 372.338 569.228 375.376C565.862 378.705 563.457 386.393 562.482 391C560.24 401.604 562 414.179 562 425L562 490C562 507.382 562.248 526.272 556.841 542.996C554.082 551.531 547.901 561.916 541.711 568.405C537.788 572.516 531.967 575.164 529 580C554.472 568.532 563 539.783 563 514L563 434L563 409C563 404.545 562.369 399.52 563.459 395.17C565.424 387.325 569.257 378.031 575.951 373.185C585.579 366.215 609.31 364.42 602 347z"/>
<path style="fill:#d7c9c2; stroke:none;" d="M94 348C94.0004 351.542 93.4709 355.717 95.179 358.96C99.5149 367.193 114.407 367.86 121.826 372.927C129.443 378.129 133.294 388.138 134 397C139.559 383.747 127.02 371.648 116 367.031C111.665 365.215 106.054 364.707 102.147 362.062C97.8714 359.168 97.4333 351.992 94 348z"/>
<path style="fill:#b19a96; stroke:none;" d="M154 348L155 349L154 348z"/>
<path style="fill:#b9a39e; stroke:none;" d="M542 348L543 349L542 348z"/>
<path style="fill:#a9918e; stroke:none;" d="M155 349L156 350L155 349z"/>
<path style="fill:#a9918d; stroke:none;" d="M541 349L542 350L541 349z"/>
<path style="fill:#d0c2bc; stroke:none;" d="M600 352C598.225 355.514 596.336 359.015 592.826 361.102C583.836 366.449 570.731 366.507 565.013 377.019C563.427 379.933 563.256 383.759 563 387C566.438 383.646 566.425 378.735 570.109 375.376C573.383 372.39 577.901 368.775 582.039 367.13C586.604 365.315 591.626 364.786 595.79 361.93C599.12 359.646 601.506 355.872 600 352z"/>
<path style="fill:#c2b5af; stroke:none;" d="M98 354C100.715 361.573 109.177 362.465 115.91 364.977C121.822 367.182 127.184 371.05 131 376C131.61 371.793 128.029 367.979 124.96 365.329C117.525 358.91 106.615 358.403 98 354z"/>
<path style="fill:#c5b8b2; stroke:none;" d="M598 354C586.039 361.434 570.065 360.139 565 376C569.396 373.176 573.385 369.402 578.015 366.995C582.7 364.56 588.174 363.95 592.826 361.585C595.789 360.079 598.488 357.341 598 354z"/>
<path style="fill:#96817d; stroke:none;" d="M100 355L101 356L100 355z"/>
<path style="fill:#987e7c; stroke:none;" d="M535 355L536 356L535 355z"/>
<path style="fill:#97817e; stroke:none;" d="M596 355L597 356L596 355z"/>
<path style="fill:#a9918e; stroke:none;" d="M162 356L163 357L162 356z"/>
<path style="fill:#b39c97; stroke:none;" d="M534 356L535 357L534 356z"/>
<path style="fill:#846c6a; stroke:none;" d="M105.667 357.333C105.222 357.778 106.278 357.722 106.333 357.667C106.778 357.222 105.722 357.278 105.667 357.333z"/>
<path style="fill:#ccb8b2; stroke:none;" d="M163 357L164 358L163 357z"/>
<path style="fill:#cdb8b2; stroke:none;" d="M533 357L534 358L533 357z"/>
<path style="fill:#cabdb7; stroke:none;" d="M99 358C100.9 364.278 108.517 364.547 114 366.634C122.026 369.69 127.238 374.032 132 381C133.165 376.611 129.536 372.271 125.961 369.894C117.885 364.525 107.921 361.709 99 358z"/>
<path style="fill:#988581; stroke:none;" d="M108.667 358.333C108.222 358.778 109.278 358.722 109.333 358.667C109.778 358.222 108.722 358.278 108.667 358.333z"/>
<path style="fill:#a99f9b; stroke:none;" d="M254 358L255 359L254 358z"/>
<path style="fill:#3e3e3e; stroke:none;" d="M255.001 358.664C238.122 363.358 244.889 390.123 262 385.181C278.863 380.312 271.638 354.037 255.001 358.664z"/>
<path style="fill:#797471; stroke:none;" d="M260.667 358.333C260.222 358.778 261.278 358.722 261.333 358.667C261.778 358.222 260.722 358.278 260.667 358.333z"/>
<path style="fill:#b5aaa6; stroke:none;" d="M262 358L263 359L262 358z"/>
<path style="fill:#a99f9b; stroke:none;" d="M310 358L311 359L310 358z"/>
<path style="fill:#3e3e3e; stroke:none;" d="M311.001 358.649C299.296 362.197 296.86 379.734 309.004 384.437C318.913 388.274 332.528 386 343 386L413 386L435 386C439.728 386 444.74 386.372 448.995 383.91C461.29 376.799 455.869 360.223 443 358.301C433.337 356.858 422.763 358 413 358L355 358L326 358C321.209 358 315.636 357.244 311.001 358.649z"/>
<path style="fill:#797471; stroke:none;" d="M444.667 358.333C444.222 358.778 445.278 358.722 445.333 358.667C445.778 358.222 444.722 358.278 444.667 358.333z"/>
<path style="fill:#b5aaa6; stroke:none;" d="M446 358L447 359L446 358z"/>
<path style="fill:#a89892; stroke:none;" d="M587.667 358.333C587.222 358.778 588.278 358.722 588.333 358.667C588.778 358.222 587.722 358.278 587.667 358.333z"/>
<path style="fill:#6d6967; stroke:none;" d="M252 359L253 360L252 359z"/>
<path style="fill:#857f7c; stroke:none;" d="M264 359L265 360L264 359z"/>
<path style="fill:#6d6967; stroke:none;" d="M308 359L309 360L308 359z"/>
<path style="fill:#857f7c; stroke:none;" d="M448 359L449 360L448 359z"/>
<path style="fill:#a08784; stroke:none;" d="M532 359L533 360L532 359z"/>
<path style="fill:#a99893; stroke:none;" d="M583.667 359.333C583.222 359.778 584.278 359.722 584.333 359.667C584.778 359.222 583.722 359.278 583.667 359.333z"/>
<path style="fill:#bba5a0; stroke:none;" d="M165 360L166 361L165 360z"/>
<path style="fill:#918986; stroke:none;" d="M250 360L251 361L250 360z"/>
<path style="fill:#9c9491; stroke:none;" d="M266 360L267 361L266 360z"/>
<path style="fill:#918986; stroke:none;" d="M306 360L307 361L306 360z"/>
<path style="fill:#9d9591; stroke:none;" d="M450 360L451 361L450 360z"/>
<path style="fill:#c5aeaa; stroke:none;" d="M531 360L532 361L531 360z"/>
<path style="fill:#a89893; stroke:none;" d="M580.667 360.333C580.222 360.778 581.278 360.722 581.333 360.667C581.778 360.222 580.722 360.278 580.667 360.333z"/>
<path style="fill:#6d6967; stroke:none;" d="M249 361L250 362L249 361z"/>
<path style="fill:#918a86; stroke:none;" d="M267 361L268 362L267 361z"/>
<path style="fill:#6d6967; stroke:none;" d="M305 361L306 362L305 361z"/>
<path style="fill:#918a86; stroke:none;" d="M451 361L452 362L451 361z"/>
<path style="fill:#a9918d; stroke:none;" d="M166 362L167 363L166 362z"/>
<path style="fill:#857f7c; stroke:none;" d="M268 362L269 363L268 362z"/>
<path style="fill:#857f7b; stroke:none;" d="M452 362L453 363L452 362z"/>
<path style="fill:#b19a96; stroke:none;" d="M530 362L531 363L530 362z"/>
<path style="fill:#947f7b; stroke:none;" d="M122 363L123 364L122 363z"/>
<path style="fill:#857f7c; stroke:none;" d="M247 363L248 364L247 363z"/>
<path style="fill:#918a86; stroke:none;" d="M269 363L270 364L269 363z"/>
<path style="fill:#857e7b; stroke:none;" d="M303 363L304 364L303 363z"/>
<path style="fill:#918a86; stroke:none;" d="M453 363L454 364L453 363z"/>
<path style="fill:#b3a9a4; stroke:none;" d="M246 364L247 365L246 364z"/>
<path style="fill:#cbbeb9; stroke:none;" d="M270 364L271 365L270 364z"/>
<path style="fill:#b4aaa5; stroke:none;" d="M302 364L303 365L302 364z"/>
<path style="fill:#cbbeb9; stroke:none;" d="M454 364L455 365L454 364z"/>
<path style="fill:#9f8684; stroke:none;" d="M529 364L530 365L529 364z"/>
<path style="fill:#6c6866; stroke:none;" d="M270 365L271 366L270 365M454 365L455 366L454 365z"/>
<path style="fill:#f5e5dd; stroke:none;" d="M527 365C522.152 374.262 517.254 386.477 516.248 397C515.932 400.308 516.904 403.682 516.985 407C517.197 415.656 517 424.341 517 433L517 526C519.921 521.725 519 516.006 519 511L519 478L519 424C519 414.857 518.009 405.06 519.3 396C520.86 385.055 525.032 375.231 529 365L527 365z"/>
<path style="fill:#9f8783; stroke:none;" d="M168 366L169 367L168 366z"/>
<path style="fill:#b3a9a4; stroke:none;" d="M245 366L246 367L245 366z"/>
<path style="fill:#cbbeb8; stroke:none;" d="M271 366L272 367L271 366z"/>
<path style="fill:#b3a8a3; stroke:none;" d="M301 366L302 367L301 366z"/>
<path style="fill:#cabeb8; stroke:none;" d="M455 366L456 367L455 366z"/>
<path style="fill:#9f8683; stroke:none;" d="M528 366L529 367L528 366z"/>
<path style="fill:#b09994; stroke:none;" d="M169 368L170 369L169 368z"/>
<path style="fill:#c1aca7; stroke:none;" d="M527 368L528 369L527 368z"/>
<path style="fill:#ebdcd4; stroke:none;" d="M243 369C241.326 371.903 240.306 374.604 240.094 378C238.665 400.854 276.196 405.369 275.981 381C275.952 377.722 275.263 374.992 274 372C271.964 376.851 273.3 382.086 270.517 386.961C264.007 398.363 250.911 396.187 245.573 385C243.119 379.859 245.125 374.064 243 369z"/>
<path style="fill:#948c89; stroke:none;" d="M244 369L244 375C244.951 372.715 244.951 371.285 244 369z"/>
<path style="fill:#aca29e; stroke:none;" d="M272 369L272 375C272.951 372.715 272.951 371.285 272 369z"/>
<path style="fill:#948c89; stroke:none;" d="M300 369L300 375C300.951 372.715 300.951 371.285 300 369z"/>
<path style="fill:#afa5a1; stroke:none;" d="M456 369L456 375C456.951 372.715 456.951 371.285 456 369z"/>
<path style="fill:#9b8884; stroke:none;" d="M129 370L130 371L129 370z"/>
<path style="fill:#f6e6de; stroke:none;" d="M299 370C294.88 382.172 298.349 394.699 312 398.431C326.555 402.411 344.076 399 359 399L419 399C428.102 399 438.126 400.879 447 398.876C458.803 396.211 467.791 378.761 457 370C457.208 380.076 460.37 388.974 449.829 395.101C445.995 397.33 441.268 396.998 437 397L416 397L342 397C332.595 397 318.525 399.604 310.004 395.235C304.994 392.667 300.011 387.807 299.147 382C298.549 377.974 300.179 373.834 299 370z"/>
<path style="fill:#96817d; stroke:none;" d="M567 370L568 371L567 370z"/>
<path style="fill:#9d8582; stroke:none;" d="M526 371L527 372L526 371z"/>
<path style="fill:#b7a29d; stroke:none;" d="M171 373L172 374L171 373z"/>
<path style="fill:#edded6; stroke:none;" d="M299 373C299 383.051 300.159 392.145 311.001 396.16C314.719 397.538 319.104 397 323 397L344 397L416 397C428.454 397 453.595 402.042 458 386C454.114 389.038 450.854 392.66 446 394.235C436.716 397.249 423.718 395 414 395L348 395C336.844 395 321.307 397.772 311.005 393.111C301.332 388.735 303.915 380.192 299 373z"/>
<path style="fill:#c7b3ad; stroke:none;" d="M525 373L526 374L525 373z"/>
<path style="fill:#9d8582; stroke:none;" d="M525 374L526 375L525 374z"/>
<path style="fill:#e9dad2; stroke:none;" d="M573 374C568.81 380.218 564.657 387.684 563.26 395.17C561.108 406.704 563 420.265 563 432L563 531C565.478 525.48 565 518.943 565 513L565 483C565 461.001 564.409 438.919 565.911 417C566.522 408.07 565.349 398.803 567.47 390C568.904 384.048 572.817 379.523 575 374L573 374z"/>
<path style="fill:#decfc9; stroke:none;" d="M244 375C244.014 380.069 244.201 384.79 247.419 388.995C253.957 397.539 266.042 396.739 271.022 386.961C272.985 383.104 272.997 379.215 273 375C270.466 378.544 270.06 383.312 267.297 386.62C262.622 392.218 252.878 392.601 248.403 386.671C245.76 383.169 246.199 378.67 244 375z"/>
<path style="fill:#e0d1ca; stroke:none;" d="M456 375C453.721 382.223 451.175 391.128 443 393.49C438.688 394.736 433.448 394 429 394L402 394L313 394C316.959 395.661 321.74 395 326 395L352 395C381.653 395 411.352 395.493 441 394.995C450.522 394.836 463.743 385.221 456 375z"/>
<path style="fill:#ac9a95; stroke:none;" d="M132.333 376.667C132.278 376.722 132.222 377.778 132.667 377.333C132.722 377.278 132.778 376.222 132.333 376.667z"/>
<path style="fill:#ebdcd4; stroke:none;" d="M172 376C176.842 391.268 176 407.193 176 423L176 482C176 496.124 175.376 510.073 178 524C179.552 520.301 179 515.983 179 512L179 490L179 411C179 402.936 177.639 395.885 176.324 388C175.562 383.43 176.181 378.864 172 376z"/>
<path style="fill:#8c8581; stroke:none;" d="M245.333 376.667C245.278 376.722 245.222 377.778 245.667 377.333C245.722 377.278 245.778 376.222 245.333 376.667z"/>
<path style="fill:#6f6b69; stroke:none;" d="M271 376L272 377L271 376z"/>
<path style="fill:#706c69; stroke:none;" d="M455 376L456 377L455 376z"/>
<path style="fill:#ad9692; stroke:none;" d="M524.333 376.667C524.278 376.722 524.222 377.778 524.667 377.333C524.722 377.278 524.778 376.222 524.333 376.667z"/>
<path style="fill:#8c7170; stroke:none;" d="M172.333 377.667C172.278 377.722 172.222 378.778 172.667 378.333C172.722 378.278 172.778 377.222 172.333 377.667z"/>
<path style="fill:#a09794; stroke:none;" d="M271 377L272 378L271 377z"/>
<path style="fill:#8c8682; stroke:none;" d="M301 377L302 378L301 377z"/>
<path style="fill:#a09894; stroke:none;" d="M455 377L456 378L455 377z"/>
<path style="fill:#ccbfb9; stroke:none;" d="M301 378C301.109 380.1 301.24 382.01 301.991 384.005C306.412 395.751 318.65 393 329 393L415 393L438 393C443.284 392.991 448.015 392.863 451 388C438.141 391.402 424.255 390 411 390L342 390L321 390C316.148 390 311.222 390.298 307.109 387.231C303.919 384.853 303.201 381.067 301 378z"/>
<path style="fill:#967f7c; stroke:none;" d="M133.333 379.667C133.278 379.722 133.222 380.778 133.667 380.333C133.722 380.278 133.778 379.222 133.333 379.667z"/>
<path style="fill:#918986; stroke:none;" d="M246 379L247 380L246 379z"/>
<path style="fill:#918a86; stroke:none;" d="M302 379L303 380L302 379z"/>
<path style="fill:#b49e9a; stroke:none;" d="M173 380L173 383C173.696 381.446 173.696 381.554 173 380z"/>
<path style="fill:#c5b8b2; stroke:none;" d="M246 380C246.988 394.707 266.775 394.294 270 381C260.1 386.953 255.52 386.211 246 380z"/>
<path style="fill:#867e7b; stroke:none;" d="M269 380L270 381L269 380M453 380L454 381L453 380z"/>
<path style="fill:#eadbd3; stroke:none;" d="M522 380C521.318 385.369 519.748 390.637 519.174 396C517.706 409.707 519 424.213 519 438L519 520C523.232 510.574 521 497.139 521 487L521 415C521 408.721 520.549 402.243 521.286 396C521.863 391.108 523.809 384.634 522 380z"/>
<path style="fill:#b59f9a; stroke:none;" d="M523.333 380.667C523.278 380.722 523.222 381.778 523.667 381.333C523.722 381.278 523.778 380.222 523.333 380.667z"/>
<path style="fill:#af9d97; stroke:none;" d="M563 380L563 383C563.696 381.446 563.696 381.554 563 380z"/>
<path style="fill:#716d6a; stroke:none;" d="M268 381L269 382L268 381z"/>
<path style="fill:#beb1ab; stroke:none;" d="M303 381C305.644 393.96 325.128 390 335 390L425 390C434.947 390 450.743 393.414 454 381C442.331 388.017 429.265 386 416 386L341 386C327.735 386 314.669 388.017 303 381z"/>
<path style="fill:#716d69; stroke:none;" d="M452 381L453 382L452 381z"/>
<path style="fill:#706b68; stroke:none;" d="M267 382L268 383L267 382z"/>
<path style="fill:#716c69; stroke:none;" d="M451 382L452 383L451 382z"/>
<path style="fill:#8b716f; stroke:none;" d="M523.333 382.667C523.278 382.722 523.222 383.778 523.667 383.333C523.722 383.278 523.778 382.222 523.333 382.667z"/>
<path style="fill:#817a77; stroke:none;" d="M250 383L251 384L250 383z"/>
<path style="fill:#89827e; stroke:none;" d="M266 383L267 384L266 383z"/>
<path style="fill:#807976; stroke:none;" d="M306 383L307 384L306 383z"/>
<path style="fill:#89827e; stroke:none;" d="M450 383L451 384L450 383z"/>
<path style="fill:#6e6967; stroke:none;" d="M252 384L253 385L252 384z"/>
<path style="fill:#6f6967; stroke:none;" d="M264 384L265 385L264 384z"/>
<path style="fill:#6e6966; stroke:none;" d="M308 384L309 385L308 384z"/>
<path style="fill:#6f6967; stroke:none;" d="M448 384L449 385L448 384z"/>
<path style="fill:#8a7270; stroke:none;" d="M562.333 384.667C562.278 384.722 562.222 385.778 562.667 385.333C562.722 385.278 562.778 384.222 562.333 384.667z"/>
<path style="fill:#a08a86; stroke:none;" d="M134 385L134 388C134.696 386.446 134.696 386.554 134 385z"/>
<path style="fill:#656260; stroke:none;" d="M254 385C255.248 385.685 255.548 385.749 257 386C255.752 385.315 255.452 385.251 254 385z"/>
<path style="fill:#877f7c; stroke:none;" d="M261.667 385.333C261.222 385.778 262.278 385.722 262.333 385.667C262.778 385.222 261.722 385.278 261.667 385.333z"/>
<path style="fill:#656260; stroke:none;" d="M310 385C311.248 385.685 311.548 385.749 313 386C311.752 385.315 311.452 385.251 310 385z"/>
<path style="fill:#867f7b; stroke:none;" d="M445.667 385.333C445.222 385.778 446.278 385.722 446.333 385.667C446.778 385.222 445.722 385.278 445.667 385.333z"/>
<path style="fill:#cab8b2; stroke:none;" d="M522.333 385.667C522.278 385.722 522.222 386.778 522.667 386.333C522.722 386.278 522.778 385.222 522.333 385.667z"/>
<path style="fill:#b29c98; stroke:none;" d="M174.333 386.667C174.278 386.722 174.222 387.778 174.667 387.333C174.722 387.278 174.778 386.222 174.333 386.667z"/>
<path style="fill:#a6928d; stroke:none;" d="M562.333 386.667C562.278 386.722 562.222 387.778 562.667 387.333C562.722 387.278 562.778 386.222 562.333 386.667z"/>
<path style="fill:#a28b87; stroke:none;" d="M522.333 387.667C522.278 387.722 522.222 388.778 522.667 388.333C522.722 388.278 522.778 387.222 522.333 387.667z"/>
<path style="fill:#927976; stroke:none;" d="M174.333 388.667C174.278 388.722 174.222 389.778 174.667 389.333C174.722 389.278 174.778 388.222 174.333 388.667z"/>
<path style="fill:#c2b1ab; stroke:none;" d="M562 388L562 391C562.696 389.446 562.696 389.554 562 388z"/>
<path style="fill:#8a6f6e; stroke:none;" d="M522.333 389.667C522.278 389.722 522.222 390.778 522.667 390.333C522.722 390.278 522.778 389.222 522.333 389.667z"/>
<path style="fill:#866c6a; stroke:none;" d="M135 392L135 396C135.71 394.24 135.71 393.76 135 392z"/>
<path style="fill:#c6b4ad; stroke:none;" d="M175 393L175 397C175.71 395.24 175.71 394.76 175 393z"/>
<path style="fill:#d9cbc4; stroke:none;" d="M311 393C315.215 394.769 320.464 394 325 394L351 394L445 394C440.785 392.231 435.536 393 431 393L405 393L311 393z"/>
<path style="fill:#866d6a; stroke:none;" d="M561 393L561 398C561.83 395.97 561.83 395.03 561 393z"/>
<path style="fill:#c6b3ae; stroke:none;" d="M521 394L521 398C521.71 396.24 521.71 395.76 521 394z"/>
<path style="fill:#967e7b; stroke:none;" d="M135 396L135 504C137.903 497.081 136 486.48 136 479L136 424C136 415.729 138.206 403.639 135 396z"/>
<path style="fill:#b3a09b; stroke:none;" d="M175 397L175 510C178.306 502.121 176 489.534 176 481L176 423C176 415.256 178.004 404.159 175 397z"/>
<path style="fill:#b29f9a; stroke:none;" d="M521 398L521 509C523.903 502.081 522 491.48 522 484L522 427C522 418.466 524.306 405.879 521 398z"/>
<path style="fill:#967e7b; stroke:none;" d="M561 398L561 511C564.004 503.841 562 492.744 562 485L562 427C562 418.466 564.306 405.879 561 398z"/>
<path style="fill:#f5e5dd; stroke:none;" d="M179 399L179 499C179 511.67 175.505 528.459 187 537C185.324 532.314 183.127 528.005 182.25 523.039C179.882 509.635 181.158 495.574 180.996 482C180.822 467.368 180 452.701 180 438C180 429.747 179.388 421.219 180.17 413C180.635 408.114 182.159 403.17 179 399z"/>
<path style="fill:#a99f9b; stroke:none;" d="M254 418L255 419L254 418z"/>
<path style="fill:#3e3e3e; stroke:none;" d="M255.001 418.664C238.122 423.358 244.889 450.123 262 445.181C278.863 440.312 271.638 414.037 255.001 418.664z"/>
<path style="fill:#797471; stroke:none;" d="M260.667 418.333C260.222 418.778 261.278 418.722 261.333 418.667C261.778 418.222 260.722 418.278 260.667 418.333z"/>
<path style="fill:#b5aaa6; stroke:none;" d="M262 418L263 419L262 418z"/>
<path style="fill:#a99f9b; stroke:none;" d="M310 418L311 419L310 418z"/>
<path style="fill:#3e3e3e; stroke:none;" d="M311.001 418.649C299.296 422.197 296.86 439.734 309.004 444.437C318.913 448.274 332.528 446 343 446L413 446L435 446C439.728 446 444.74 446.372 448.995 443.91C461.29 436.799 455.869 420.223 443 418.301C433.337 416.858 422.763 418 413 418L355 418L326 418C321.209 418 315.636 417.244 311.001 418.649z"/>
<path style="fill:#797471; stroke:none;" d="M444.667 418.333C444.222 418.778 445.278 418.722 445.333 418.667C445.778 418.222 444.722 418.278 444.667 418.333z"/>
<path style="fill:#b5aaa6; stroke:none;" d="M446 418L447 419L446 418z"/>
<path style="fill:#6d6967; stroke:none;" d="M252 419L253 420L252 419z"/>
<path style="fill:#857f7c; stroke:none;" d="M264 419L265 420L264 419z"/>
<path style="fill:#6d6967; stroke:none;" d="M308 419L309 420L308 419z"/>
<path style="fill:#857f7c; stroke:none;" d="M448 419L449 420L448 419z"/>
<path style="fill:#918986; stroke:none;" d="M250 420L251 421L250 420z"/>
<path style="fill:#9d9591; stroke:none;" d="M266 420L267 421L266 420z"/>
<path style="fill:#918986; stroke:none;" d="M306 420L307 421L306 420z"/>
<path style="fill:#9d9591; stroke:none;" d="M450 420L451 421L450 420z"/>
<path style="fill:#6d6967; stroke:none;" d="M249 421L250 422L249 421z"/>
<path style="fill:#918a86; stroke:none;" d="M267 421L268 422L267 421z"/>
<path style="fill:#6d6967; stroke:none;" d="M305 421L306 422L305 421z"/>
<path style="fill:#918a86; stroke:none;" d="M451 421L452 422L451 421z"/>
<path style="fill:#857f7b; stroke:none;" d="M268 422L269 423L268 422z"/>
<path style="fill:#857f7c; stroke:none;" d="M452 422L453 423L452 422z"/>
<path style="fill:#857e7b; stroke:none;" d="M247 423L248 424L247 423z"/>
<path style="fill:#918a86; stroke:none;" d="M269 423L270 424L269 423z"/>
<path style="fill:#857e7b; stroke:none;" d="M303 423L304 424L303 423z"/>
<path style="fill:#918a86; stroke:none;" d="M453 423L454 424L453 423z"/>
<path style="fill:#b4a9a5; stroke:none;" d="M246 424L247 425L246 424z"/>
<path style="fill:#cbbfb9; stroke:none;" d="M270 424L271 425L270 424z"/>
<path style="fill:#b3a9a4; stroke:none;" d="M302 424L303 425L302 424z"/>
<path style="fill:#ccbfb9; stroke:none;" d="M454 424L455 425L454 424z"/>
<path style="fill:#6d6967; stroke:none;" d="M270 425L271 426L270 425z"/>
<path style="fill:#6c6867; stroke:none;" d="M454 425L455 426L454 425z"/>
<path style="fill:#b3a8a3; stroke:none;" d="M245 426L246 427L245 426z"/>
<path style="fill:#cabdb7; stroke:none;" d="M271 426L272 427L271 426z"/>
<path style="fill:#f3e3db; stroke:none;" d="M300 426C297.81 430.015 295.199 434.617 294.88 439.285C294.322 447.465 301.442 456.025 309 458.211C314.394 459.77 320.452 458.879 326 459.015C337.073 459.286 347.924 459.014 359 459L418 459C426.301 459 435.89 460.644 444 459.37C455.925 457.496 469.072 440.816 457 431C457 441.668 456.177 450.58 445 455.077C441.581 456.453 437.609 456 434 456L413 456L340 456C329.463 456 314.3 458.751 305.174 452.337C294.815 445.056 302.826 435.191 300 426z"/>
<path style="fill:#b3a9a4; stroke:none;" d="M301 426L302 427L301 426z"/>
<path style="fill:#cabdb8; stroke:none;" d="M455 426L456 427L455 426z"/>
<path style="fill:#948c89; stroke:none;" d="M244 429L244 435C244.951 432.715 244.951 431.285 244 429z"/>
<path style="fill:#aba19d; stroke:none;" d="M272 429L272 435C272.951 432.715 272.951 431.285 272 429z"/>
<path style="fill:#948c89; stroke:none;" d="M300 429L300 435C300.951 432.715 300.951 431.285 300 429z"/>
<path style="fill:#aca29e; stroke:none;" d="M456 429L456 435C456.951 432.715 456.951 431.285 456 429z"/>
<path style="fill:#ecddd5; stroke:none;" d="M273 431C272.266 436.808 272.684 445.109 268.49 449.698C262.2 456.579 250.848 454.265 246.228 446.91C243.768 442.993 244.003 438.437 244 434C239.159 440.391 243.75 450.863 249.835 454.852C257.204 459.682 268.868 457.185 273.656 449.907C275.45 447.178 275.907 444.199 275.985 441C276.086 436.894 275.985 433.924 273 431z"/>
<path style="fill:#dfd0c9; stroke:none;" d="M244 435C244.004 440.667 243.687 446.684 249 450C246.861 445.175 246.637 439.403 244 435z"/>
<path style="fill:#e0d1ca; stroke:none;" d="M299 435C299.005 442.724 299.27 451.399 308.015 454.196C312.677 455.687 318.171 455 323 455L352 455L414 455C423.87 455 435.306 456.601 445 454.725C455.238 452.744 456.994 443.932 457 435C452.08 441.91 452.3 449.671 443 453.03C434.127 456.235 421.363 454 412 454L346 454L324 454C319.648 454 315.09 454.417 311.004 452.633C307.228 450.984 303.907 447.97 302.56 443.999C301.374 440.503 302.147 437.395 299 435z"/>
<path style="fill:#8c8581; stroke:none;" d="M245.333 436.667C245.278 436.722 245.222 437.778 245.667 437.333C245.722 437.278 245.778 436.222 245.333 436.667z"/>
<path style="fill:#706b69; stroke:none;" d="M271 436L272 437L271 436z"/>
<path style="fill:#706c69; stroke:none;" d="M455 436L456 437L455 436z"/>
<path style="fill:#a09793; stroke:none;" d="M271 437L272 438L271 437z"/>
<path style="fill:#8c8682; stroke:none;" d="M301 437L302 438L301 437z"/>
<path style="fill:#a09894; stroke:none;" d="M455 437L456 438L455 437z"/>
<path style="fill:#dccec7; stroke:none;" d="M271 438C270.264 445.333 266.184 451.989 258 451.903C254.927 451.87 251.979 450.612 249 450C257.154 459.24 276.25 450.876 271 438z"/>
<path style="fill:#918986; stroke:none;" d="M246 439L247 440L246 439z"/>
<path style="fill:#d0c3bc; stroke:none;" d="M270 439L269 445C270.495 442.815 270.889 441.508 270 439z"/>
<path style="fill:#918986; stroke:none;" d="M302 439L303 440L302 439z"/>
<path style="fill:#cec1ba; stroke:none;" d="M246 440C246.093 443.138 246.264 446.12 248.573 448.525C254.232 454.422 266.602 453.099 269 445C263.033 448.462 255.787 453.387 249.652 446.607C247.963 444.74 247.221 442.156 246 440z"/>
<path style="fill:#867e7b; stroke:none;" d="M269 440L270 441L269 440z"/>
<path style="fill:#d3c5bf; stroke:none;" d="M302 440C302.159 445 303.469 448.548 308 451C306.57 446.979 305.111 442.948 302 440z"/>
<path style="fill:#867e7b; stroke:none;" d="M453 440L454 441L453 440z"/>
<path style="fill:#c0b3ad; stroke:none;" d="M247 441C249.11 452.546 265.785 453.377 269 442C260.085 446.665 255.543 446.137 247 441z"/>
<path style="fill:#716d69; stroke:none;" d="M268 441L269 442L268 441z"/>
<path style="fill:#716d6a; stroke:none;" d="M452 441L453 442L452 441z"/>
<path style="fill:#c3b6b0; stroke:none;" d="M453 441C443.066 449.135 427.185 446 415 446L344 446C331.105 446 317.083 447.923 305 443C307.446 455.599 324.23 452 334 452L424 452C430.802 452 440.59 453.775 446.985 451.258C451.031 449.664 454.156 445.231 453 441z"/>
<path style="fill:#706b68; stroke:none;" d="M267 442L268 443L267 442z"/>
<path style="fill:#716c69; stroke:none;" d="M451 442L452 443L451 442z"/>
<path style="fill:#807976; stroke:none;" d="M250 443L251 444L250 443z"/>
<path style="fill:#89827e; stroke:none;" d="M266 443L267 444L266 443z"/>
<path style="fill:#807976; stroke:none;" d="M306 443L307 444L306 443z"/>
<path style="fill:#89827e; stroke:none;" d="M450 443L451 444L450 443z"/>
<path style="fill:#6e6966; stroke:none;" d="M252 444L253 445L252 444z"/>
<path style="fill:#6f6968; stroke:none;" d="M264 444L265 445L264 444z"/>
<path style="fill:#6e6967; stroke:none;" d="M308 444L309 445L308 444z"/>
<path style="fill:#6f6967; stroke:none;" d="M448 444L449 445L448 444z"/>
<path style="fill:#656260; stroke:none;" d="M254 445C255.248 445.685 255.548 445.749 257 446C255.752 445.315 255.452 445.251 254 445z"/>
<path style="fill:#877f7c; stroke:none;" d="M261.667 445.333C261.222 445.778 262.278 445.722 262.333 445.667C262.778 445.222 261.722 445.278 261.667 445.333z"/>
<path style="fill:#656160; stroke:none;" d="M310 445C311.248 445.685 311.548 445.749 313 446C311.752 445.315 311.452 445.251 310 445z"/>
<path style="fill:#867f7b; stroke:none;" d="M445.667 445.333C445.222 445.778 446.278 445.722 446.333 445.667C446.778 445.222 445.722 445.278 445.667 445.333z"/>
<path style="fill:#d1c4bd; stroke:none;" d="M308 451C311.838 453.622 316.49 453 321 453L346 453L445 453C440.785 451.231 435.535 452 431 452L403 452C371.316 452 339.602 452.357 308 451z"/>
<path style="fill:#d8cac3; stroke:none;" d="M312 453C316.215 454.769 321.465 454 326 454L352 454L443 454C438.785 452.231 433.536 453 429 453L403 453L312 453z"/>
<path style="fill:#e7d8d1; stroke:none;" d="M312 455C316.215 456.769 321.465 456 326 456L352 456L446 456C441.785 454.231 436.536 455 432 455L406 455L312 455z"/>
<path style="fill:#a58e8b; stroke:none;" d="M135 504L135 512C136.161 509.23 136.161 506.77 135 504z"/>
<path style="fill:#886e6c; stroke:none;" d="M521 509L521 512C521.696 510.446 521.696 510.554 521 509z"/>
<path style="fill:#c8b6b0; stroke:none;" d="M561 511L561 516C561.83 513.97 561.83 513.03 561 511z"/>
<path style="fill:#d1c4bd; stroke:none;" d="M135 512C135 529.653 138.784 550.577 150.654 564.286C154.968 569.267 158.312 573.548 165 575C159.411 568.048 151.226 563.151 147.008 555C142.582 546.445 139.218 535.441 137.211 526C136.247 521.465 136.764 516.204 135 512z"/>
<path style="fill:#beaba6; stroke:none;" d="M520.333 514.667C520.278 514.722 520.222 515.778 520.667 515.333C520.722 515.278 520.778 514.222 520.333 514.667z"/>
<path style="fill:#b09b96; stroke:none;" d="M176 515L176 518C176.696 516.446 176.696 516.554 176 515z"/>
<path style="fill:#917875; stroke:none;" d="M520 516L520 519C520.696 517.446 520.696 517.554 520 516z"/>
<path style="fill:#947c79; stroke:none;" d="M136 518L136 521C136.696 519.446 136.696 519.554 136 518z"/>
<path style="fill:#866d6a; stroke:none;" d="M560.333 518.667C560.278 518.722 560.222 519.778 560.667 519.333C560.722 519.278 560.778 518.222 560.333 518.667z"/>
<path style="fill:#9a827e; stroke:none;" d="M519.333 520.667C519.278 520.722 519.222 521.778 519.667 521.333C519.722 521.278 519.778 520.222 519.333 520.667z"/>
<path style="fill:#aa9591; stroke:none;" d="M560.333 520.667C560.278 520.722 560.222 521.778 560.667 521.333C560.722 521.278 560.778 520.222 560.333 520.667z"/>
<path style="fill:#b6a49e; stroke:none;" d="M136.333 521.667C136.278 521.722 136.222 522.778 136.667 522.333C136.722 522.278 136.778 521.222 136.333 521.667z"/>
<path style="fill:#836766; stroke:none;" d="M177.333 521.667C177.278 521.722 177.222 522.778 177.667 522.333C177.722 522.278 177.778 521.222 177.333 521.667z"/>
<path style="fill:#b39d99; stroke:none;" d="M178 524L179 525L178 524z"/>
<path style="fill:#8d7471; stroke:none;" d="M559.333 525.667C559.278 525.722 559.222 526.778 559.667 526.333C559.722 526.278 559.778 525.222 559.333 525.667z"/>
<path style="fill:#ad9a95; stroke:none;" d="M137.333 526.667C137.278 526.722 137.222 527.778 137.667 527.333C137.722 527.278 137.778 526.222 137.333 526.667z"/>
<path style="fill:#bca8a3; stroke:none;" d="M517 526L518 527L517 526z"/>
<path style="fill:#a48d89; stroke:none;" d="M179 527L180 528L179 527z"/>
<path style="fill:#bcaaa4; stroke:none;" d="M559.333 527.667C559.278 527.722 559.222 528.778 559.667 528.333C559.722 528.278 559.778 527.222 559.333 527.667z"/>
<path style="fill:#af9893; stroke:none;" d="M180 529L181 530L180 529z"/>
<path style="fill:#99827f; stroke:none;" d="M138.333 530.667C138.278 530.722 138.222 531.778 138.667 531.333C138.722 531.278 138.778 530.222 138.333 530.667z"/>
<path style="fill:#bfaba5; stroke:none;" d="M515 530L516 531L515 530z"/>
<path style="fill:#967d79; stroke:none;" d="M181 531L182 532L181 531z"/>
<path style="fill:#b2a09b; stroke:none;" d="M558.333 531.667C558.278 531.722 558.222 532.778 558.667 532.333C558.722 532.278 558.778 531.222 558.333 531.667z"/>
<path style="fill:#ecddd5; stroke:none;" d="M562 531C559.726 538.285 556.349 546.386 556 554C560.324 549.526 564.334 536.982 562 531z"/>
<path style="fill:#a78f8b; stroke:none;" d="M514 532L515 533L514 532z"/>
<path style="fill:#cbb6b1; stroke:none;" d="M513 533L514 534L513 533z"/>
<path style="fill:#d0c3bc; stroke:none;" d="M558 533C556.943 538.946 554.02 544.716 551.142 550C547.158 557.313 543.106 564.854 536.674 570.405C525.275 580.244 508.366 583.612 494 585.174C484.489 586.207 477.052 588.55 468 584C472.543 593.007 488.847 588.634 497 587.427C513.085 585.047 530.927 580.945 542.431 568.405C546.825 563.615 549.826 557.858 552.616 552.089C555.344 546.449 560.552 539.555 558 533z"/>
<path style="fill:#e0d1ca; stroke:none;" d="M137 535C137.281 548.188 142.977 565.322 156 571C152.986 565.112 147.678 560.954 144.714 555C141.593 548.732 140.988 540.595 137 535z"/>
<path style="fill:#b19a95; stroke:none;" d="M184 535L185 536L184 535z"/>
<path style="fill:#beafa8; stroke:none;" d="M557.333 535.667C557.278 535.722 557.222 536.778 557.667 536.333C557.722 536.278 557.778 535.222 557.333 535.667z"/>
<path style="fill:#b19a96; stroke:none;" d="M185 536L186 537L185 536z"/>
<path style="fill:#b29b97; stroke:none;" d="M186 537L187 538L186 537z"/>
<path style="fill:#a08884; stroke:none;" d="M187 538L188 539L187 538z"/>
<path style="fill:#bda6a1; stroke:none;" d="M507 539L508 540L507 539z"/>
<path style="fill:#a18885; stroke:none;" d="M190 540L191 541L190 540z"/>
<path style="fill:#b39c98; stroke:none;" d="M192 541L193 542L192 541z"/>
<path style="fill:#a18885; stroke:none;" d="M504 541L505 542L504 541z"/>
<path style="fill:#a18985; stroke:none;" d="M194 542L195 543L194 542z"/>
<path style="fill:#967f7b; stroke:none;" d="M142 543L143 544L142 543z"/>
<path style="fill:#b49d98; stroke:none;" d="M499 543L500 544L499 543z"/>
<path style="fill:#aa928e; stroke:none;" d="M200 544L201 545L200 544M496 544L497 545L496 544z"/>
<path style="fill:#bda6a2; stroke:none;" d="M204.667 545.333C204.222 545.778 205.278 545.722 205.333 545.667C205.778 545.222 204.722 545.278 204.667 545.333M490 545C491.248 545.685 491.548 545.749 493 546C491.752 545.315 491.452 545.251 490 545z"/>
<path style="fill:#997f7c; stroke:none;" d="M209.667 546.333C209.222 546.778 210.278 546.722 210.333 546.667C210.778 546.222 209.722 546.278 209.667 546.333z"/>
<path style="fill:#b39c98; stroke:none;" d="M211.667 546.333C211.222 546.778 212.278 546.722 212.333 546.667C212.778 546.222 211.722 546.278 211.667 546.333z"/>
<path style="fill:#e1cec7; stroke:none;" d="M213 546C215.052 546.874 216.747 546.953 219 547C216.948 546.126 215.253 546.047 213 546z"/>
<path style="fill:#ead8d0; stroke:none;" d="M477 546C478.506 546.683 479.315 546.826 481 547C479.494 546.317 478.685 546.174 477 546z"/>
<path style="fill:#cfbab4; stroke:none;" d="M481 546C482.248 546.685 482.549 546.749 484 547C482.752 546.315 482.452 546.251 481 546z"/>
<path style="fill:#aa928e; stroke:none;" d="M484 546C485.248 546.685 485.548 546.749 487 547C485.752 546.315 485.452 546.251 484 546M225.667 547.333C225.222 547.778 226.278 547.722 226.333 547.667C226.778 547.222 225.722 547.278 225.667 547.333z"/>
<path style="fill:#907573; stroke:none;" d="M470.667 547.333C470.222 547.778 471.278 547.722 471.333 547.667C471.778 547.222 470.722 547.278 470.667 547.333z"/>
<path style="fill:#b49d98; stroke:none;" d="M228 548L229 549L228 548z"/>
<path style="fill:#bda6a1; stroke:none;" d="M468 548L469 549L468 548z"/>
<path style="fill:#937d7a; stroke:none;" d="M145 549L146 550L145 549z"/>
<path style="fill:#b49d98; stroke:none;" d="M229 549L230 550L229 549z"/>
<path style="fill:#b39c97; stroke:none;" d="M467 549L468 550L467 549z"/>
<path style="fill:#bca6a1; stroke:none;" d="M230 550L231 551L230 550z"/>
<path style="fill:#c5b0aa; stroke:none;" d="M466 550L467 551L466 550z"/>
<path style="fill:#9f8b86; stroke:none;" d="M146 551L147 552L146 551z"/>
<path style="fill:#998481; stroke:none;" d="M550 551L551 552L550 551z"/>
<path style="fill:#f6e6de; stroke:none;" d="M558 551C549.12 570.427 533.489 583.156 513 589.23C507.72 590.795 502.363 590.676 497 591.615C488.186 593.159 472.479 596.109 465.471 588.722C457.435 580.253 460.788 569.263 461 559C453.181 570.249 457.963 592.793 473 594.856C496.444 598.073 523.177 591.299 541.831 577.164C548.462 572.139 561.305 560.291 558 551z"/>
<path style="fill:#c0b3ad; stroke:none;" d="M146 552C146.97 558.293 152.494 563.872 157.09 568.079C169.33 579.286 187.821 584.195 204 586.424C212.2 587.553 224.162 589.156 229 581C207.927 584.912 182.001 579.96 164 568.301C157.058 563.805 152.169 557.337 146 552z"/>
<path style="fill:#b39b96; stroke:none;" d="M231 552L232 553L231 552z"/>
<path style="fill:#c5afaa; stroke:none;" d="M465 552L466 553L465 552z"/>
<path style="fill:#9e8a85; stroke:none;" d="M148 554L149 555L148 554z"/>
<path style="fill:#b19a95; stroke:none;" d="M232.333 554.667C232.278 554.722 232.222 555.778 232.667 555.333C232.722 555.278 232.778 554.222 232.333 554.667z"/>
<path style="fill:#988380; stroke:none;" d="M548 554L549 555L548 554z"/>
<path style="fill:#ebdcd4; stroke:none;" d="M233 555C233.405 560.132 234.362 564.856 233.335 570C232.118 576.093 232.206 582.812 227.61 587.525C223.462 591.779 217.473 591.12 212 590.985C197.321 590.625 183.281 583.708 169 581C171.681 585.664 177.313 586.39 182 588.259C192.955 592.63 203.231 594 215 594C219.046 594 223.684 594.69 227.412 592.861C240.11 586.631 241.589 565.182 233 555z"/>
<path style="fill:#967c7a; stroke:none;" d="M464 555L464 558C464.696 556.446 464.696 556.554 464 555z"/>
<path style="fill:#edded6; stroke:none;" d="M555 555C550.554 560.362 546.357 567.884 540.897 572.096C530.021 580.484 518.059 584.217 505.09 587.704C498.725 589.414 493.737 590.997 487 591C482.437 591.002 475.38 592.307 471.286 589.972C460.7 583.935 462.13 567.072 464 557C455.886 564.916 458.41 588.132 470.005 591.941C478.945 594.879 489.977 592.848 499 591.439C507.305 590.142 515.101 589.693 522.911 586.049C527.775 583.778 532.063 580.432 536.996 578.135C543.785 574.974 548.213 569.232 552.088 563.015C553.682 560.457 555.788 557.992 555 555z"/>
<path style="fill:#c0b3ad; stroke:none;" d="M547 556C532.609 571.765 513.807 578.664 493 581.155C484.317 582.195 475.349 583.043 467 580C470.1 588.897 481.151 587.903 489 586.335C496.286 584.879 503.79 585.011 511 583.076C515.583 581.847 519.655 579.445 524 577.614C529.404 575.337 534.904 573.315 538.961 568.88C542.03 565.524 547.637 560.778 547 556z"/>
<path style="fill:#b6a29d; stroke:none;" d="M233 559L233 570C234.431 566.59 234.431 562.41 233 559z"/>
<path style="fill:#b7a39e; stroke:none;" d="M463 559L463 569C464.346 565.793 464.346 562.207 463 559z"/>
<path style="fill:#96817e; stroke:none;" d="M543 560L544 561L543 560z"/>
<path style="fill:#eedfd7; stroke:none;" d="M147 563C148.206 571.229 158.254 579.05 166 581C163.515 576.976 159.972 575.104 156.425 572.112C153.054 569.269 150.307 565.845 147 563z"/>
<path style="fill:#957f7c; stroke:none;" d="M159 565L160 566L159 565z"/>
<path style="fill:#dccec7; stroke:none;" d="M463 569C463.005 576.298 463.161 584.549 469.591 589.397C472.718 591.754 477.317 591 481 591C490.19 591 497.26 590.003 506.039 587.704C513.465 585.759 524.526 585.123 529 578C522.468 579.602 516.587 583.48 510 585.29C503.28 587.136 495.898 587.584 489 588.572C484.125 589.27 475.347 590.494 471.144 587.397C466.105 583.682 465.453 574.405 463 569z"/>
<path style="fill:#ded0c9; stroke:none;" d="M156 571C159.431 577.216 167.16 581.111 174 582C168.975 577.329 162.146 574 156 571z"/>
<path style="fill:#9c8481; stroke:none;" d="M232.333 572.667C232.278 572.722 232.222 573.778 232.667 573.333C232.722 573.278 232.778 572.222 232.333 572.667z"/>
<path style="fill:#a9948f; stroke:none;" d="M464 572L464 575C464.696 573.446 464.696 573.554 464 572z"/>
<path style="fill:#cfc1bb; stroke:none;" d="M165 575C172.103 585.589 188.778 585.518 200 587.131C204.355 587.757 208.582 588.877 213 588.985C217.073 589.085 223.936 590.231 227.521 587.972C231.533 585.444 231.909 580.234 232 576C229.308 579.245 227.883 583.309 223.957 585.392C220.29 587.337 216.02 587.044 212 586.996C200.494 586.86 186.817 583.47 176.09 579.351C172.012 577.785 169.542 575.306 165 575z"/>
<path style="fill:#a99893; stroke:none;" d="M518.667 575.333C518.222 575.778 519.278 575.722 519.333 575.667C519.778 575.222 518.722 575.278 518.667 575.333z"/>
<path style="fill:#9f8985; stroke:none;" d="M465 576L466 577L465 576z"/>
<path style="fill:#846c6a; stroke:none;" d="M184.667 577.333C184.222 577.778 185.278 577.722 185.333 577.667C185.778 577.222 184.722 577.278 184.667 577.333z"/>
<path style="fill:#998682; stroke:none;" d="M187.667 578.333C187.222 578.778 188.278 578.722 188.333 578.667C188.778 578.222 187.722 578.278 187.667 578.333z"/>
<path style="fill:#998581; stroke:none;" d="M507 578C508.248 578.685 508.548 578.749 510 579C508.752 578.315 508.452 578.251 507 578z"/>
<path style="fill:#947f7b; stroke:none;" d="M192.667 579.333C192.222 579.778 193.278 579.722 193.333 579.667C193.778 579.222 192.722 579.278 192.667 579.333z"/>
<path style="fill:#9a8581; stroke:none;" d="M229 579L230 580L229 579z"/>
<path style="fill:#9a8582; stroke:none;" d="M467 579L468 580L467 579z"/>
<path style="fill:#947f7b; stroke:none;" d="M502.667 579.333C502.222 579.778 503.278 579.722 503.333 579.667C503.778 579.222 502.722 579.278 502.667 579.333z"/>
<path style="fill:#a3928c; stroke:none;" d="M197.667 580.333C197.222 580.778 198.278 580.722 198.333 580.667C198.778 580.222 197.722 580.278 197.667 580.333z"/>
<path style="fill:#7a605e; stroke:none;" d="M199 580C200.506 580.683 201.315 580.826 203 581C201.494 580.317 200.685 580.174 199 580z"/>
<path style="fill:#9f8a86; stroke:none;" d="M228 580L229 581L228 580z"/>
<path style="fill:#9e8a85; stroke:none;" d="M468 580L469 581L468 580z"/>
<path style="fill:#8a7270; stroke:none;" d="M495.667 580.333C495.222 580.778 496.278 580.722 496.333 580.667C496.778 580.222 495.722 580.278 495.667 580.333z"/>
<path style="fill:#9e8c87; stroke:none;" d="M497.667 580.333C497.222 580.778 498.278 580.722 498.333 580.667C498.778 580.222 497.722 580.278 497.667 580.333z"/>
<path style="fill:#988581; stroke:none;" d="M205 581C206.769 581.779 208.036 581.912 210 582C208.231 581.221 206.964 581.088 205 581z"/>
<path style="fill:#7f6664; stroke:none;" d="M210 581C211.769 581.779 213.036 581.912 215 582C213.231 581.221 211.964 581.088 210 581z"/>
<path style="fill:#96817e; stroke:none;" d="M226 581L227 582L226 581z"/>
<path style="fill:#998581; stroke:none;" d="M485 581C487.052 581.874 488.747 581.953 491 582C488.948 581.126 487.253 581.047 485 581z"/>
<path style="fill:#daccc5; stroke:none;" d="M189 586C199.067 592.04 213.696 591 225 591L225 589C212.802 589 201.099 586.1 189 586z"/>
</svg>
